G04 #@! TF.FileFunction,Copper,L2,Bot,Signal*
%FSLAX46Y46*%
G04 Gerber Fmt 4.6, Leading zero omitted, Abs format (unit mm)*
G04 Created by KiCad (PCBNEW 4.0.7) date 02/11/18 19:05:46*
%MOMM*%
%LPD*%
G01*
G04 APERTURE LIST*
%ADD10C,0.100000*%
%ADD11C,0.300000*%
%ADD12R,1.200000X1.200000*%
%ADD13C,1.200000*%
%ADD14R,1.600000X1.600000*%
%ADD15C,1.600000*%
%ADD16C,2.000000*%
%ADD17C,1.400000*%
%ADD18O,1.400000X1.400000*%
%ADD19R,2.400000X1.600000*%
%ADD20O,2.400000X1.600000*%
%ADD21R,1.800000X1.800000*%
%ADD22C,3.000000*%
%ADD23C,1.000000*%
G04 APERTURE END LIST*
D10*
D11*
X175268572Y-125987143D02*
X174697143Y-125987143D01*
X174411429Y-126130000D01*
X174125715Y-126415714D01*
X173982857Y-126987143D01*
X173982857Y-127987143D01*
X174125715Y-128558571D01*
X174411429Y-128844286D01*
X174697143Y-128987143D01*
X175268572Y-128987143D01*
X175554286Y-128844286D01*
X175840000Y-128558571D01*
X175982857Y-127987143D01*
X175982857Y-126987143D01*
X175840000Y-126415714D01*
X175554286Y-126130000D01*
X175268572Y-125987143D01*
X172840000Y-128844286D02*
X172554286Y-128987143D01*
X171982858Y-128987143D01*
X171697143Y-128844286D01*
X171554286Y-128558571D01*
X171554286Y-128415714D01*
X171697143Y-128130000D01*
X171982858Y-127987143D01*
X172411429Y-127987143D01*
X172697143Y-127844286D01*
X172840000Y-127558571D01*
X172840000Y-127415714D01*
X172697143Y-127130000D01*
X172411429Y-126987143D01*
X171982858Y-126987143D01*
X171697143Y-127130000D01*
X168982858Y-128844286D02*
X169268572Y-128987143D01*
X169840001Y-128987143D01*
X170125715Y-128844286D01*
X170268572Y-128701429D01*
X170411429Y-128415714D01*
X170411429Y-127558571D01*
X170268572Y-127272857D01*
X170125715Y-127130000D01*
X169840001Y-126987143D01*
X169268572Y-126987143D01*
X168982858Y-127130000D01*
X167697143Y-128987143D02*
X167697143Y-126987143D01*
X167697143Y-125987143D02*
X167840000Y-126130000D01*
X167697143Y-126272857D01*
X167554286Y-126130000D01*
X167697143Y-125987143D01*
X167697143Y-126272857D01*
X165840001Y-128987143D02*
X166125715Y-128844286D01*
X166268572Y-128558571D01*
X166268572Y-125987143D01*
X163411429Y-128987143D02*
X163411429Y-127415714D01*
X163554286Y-127130000D01*
X163840000Y-126987143D01*
X164411429Y-126987143D01*
X164697143Y-127130000D01*
X163411429Y-128844286D02*
X163697143Y-128987143D01*
X164411429Y-128987143D01*
X164697143Y-128844286D01*
X164840000Y-128558571D01*
X164840000Y-128272857D01*
X164697143Y-127987143D01*
X164411429Y-127844286D01*
X163697143Y-127844286D01*
X163411429Y-127701429D01*
X162411429Y-126987143D02*
X161268572Y-126987143D01*
X161982857Y-125987143D02*
X161982857Y-128558571D01*
X161840000Y-128844286D01*
X161554286Y-128987143D01*
X161268572Y-128987143D01*
X159125714Y-128844286D02*
X159411428Y-128987143D01*
X159982857Y-128987143D01*
X160268571Y-128844286D01*
X160411428Y-128558571D01*
X160411428Y-127415714D01*
X160268571Y-127130000D01*
X159982857Y-126987143D01*
X159411428Y-126987143D01*
X159125714Y-127130000D01*
X158982857Y-127415714D01*
X158982857Y-127701429D01*
X160411428Y-127987143D01*
X156411428Y-126987143D02*
X156411428Y-128987143D01*
X157697142Y-126987143D02*
X157697142Y-128558571D01*
X157554285Y-128844286D01*
X157268571Y-128987143D01*
X156839999Y-128987143D01*
X156554285Y-128844286D01*
X156411428Y-128701429D01*
X154982856Y-128987143D02*
X154982856Y-126987143D01*
X154982856Y-127558571D02*
X154839999Y-127272857D01*
X154697142Y-127130000D01*
X154411428Y-126987143D01*
X154125713Y-126987143D01*
X150839999Y-128987143D02*
X150839999Y-125987143D01*
X149125714Y-128987143D01*
X149125714Y-125987143D01*
X147697142Y-127415714D02*
X146697142Y-127415714D01*
X146268571Y-128987143D02*
X147697142Y-128987143D01*
X147697142Y-125987143D01*
X146268571Y-125987143D01*
X143554285Y-125987143D02*
X144982856Y-125987143D01*
X145125713Y-127415714D01*
X144982856Y-127272857D01*
X144697142Y-127130000D01*
X143982856Y-127130000D01*
X143697142Y-127272857D01*
X143554285Y-127415714D01*
X143411428Y-127701429D01*
X143411428Y-128415714D01*
X143554285Y-128701429D01*
X143697142Y-128844286D01*
X143982856Y-128987143D01*
X144697142Y-128987143D01*
X144982856Y-128844286D01*
X145125713Y-128701429D01*
X140697142Y-125987143D02*
X142125713Y-125987143D01*
X142268570Y-127415714D01*
X142125713Y-127272857D01*
X141839999Y-127130000D01*
X141125713Y-127130000D01*
X140839999Y-127272857D01*
X140697142Y-127415714D01*
X140554285Y-127701429D01*
X140554285Y-128415714D01*
X140697142Y-128701429D01*
X140839999Y-128844286D01*
X141125713Y-128987143D01*
X141839999Y-128987143D01*
X142125713Y-128844286D01*
X142268570Y-128701429D01*
X137839999Y-125987143D02*
X139268570Y-125987143D01*
X139411427Y-127415714D01*
X139268570Y-127272857D01*
X138982856Y-127130000D01*
X138268570Y-127130000D01*
X137982856Y-127272857D01*
X137839999Y-127415714D01*
X137697142Y-127701429D01*
X137697142Y-128415714D01*
X137839999Y-128701429D01*
X137982856Y-128844286D01*
X138268570Y-128987143D01*
X138982856Y-128987143D01*
X139268570Y-128844286D01*
X139411427Y-128701429D01*
D12*
X149220000Y-94610000D03*
D13*
X149220000Y-93110000D03*
D14*
X140330000Y-108580000D03*
D15*
X140330000Y-106080000D03*
D16*
X154300000Y-98420000D03*
X154300000Y-93420000D03*
D17*
X146680000Y-116200000D03*
D18*
X146680000Y-108580000D03*
D17*
X154300000Y-117470000D03*
D18*
X161920000Y-117470000D03*
D19*
X161920000Y-111120000D03*
D20*
X154300000Y-103500000D03*
X161920000Y-108580000D03*
X154300000Y-106040000D03*
X161920000Y-106040000D03*
X154300000Y-108580000D03*
X161920000Y-103500000D03*
X154300000Y-111120000D03*
D21*
X133980000Y-122550000D03*
X175890000Y-93340000D03*
X175890000Y-122550000D03*
X168270000Y-106040000D03*
X133980000Y-93340000D03*
D22*
X130000000Y-85000000D03*
X180000000Y-85000000D03*
X180000000Y-135000000D03*
X130000000Y-135000000D03*
D23*
X154300000Y-106040000D02*
X150490000Y-106040000D01*
X149220000Y-104770000D02*
X149220000Y-94610000D01*
X150490000Y-106040000D02*
X149220000Y-104770000D01*
X154300000Y-106040000D02*
X155570000Y-106040000D01*
X160650000Y-117470000D02*
X161920000Y-117470000D01*
X159380000Y-116200000D02*
X160650000Y-117470000D01*
X159380000Y-112390000D02*
X159380000Y-116200000D01*
X156840000Y-109850000D02*
X159380000Y-112390000D01*
X156840000Y-107310000D02*
X156840000Y-109850000D01*
X155570000Y-106040000D02*
X156840000Y-107310000D01*
X161920000Y-108580000D02*
X164460000Y-108580000D01*
X164460000Y-117470000D02*
X161920000Y-117470000D01*
X165730000Y-116200000D02*
X164460000Y-117470000D01*
X165730000Y-109850000D02*
X165730000Y-116200000D01*
X164460000Y-108580000D02*
X165730000Y-109850000D01*
X140330000Y-106080000D02*
X140330000Y-93340000D01*
X149220000Y-93110000D02*
X144370000Y-93110000D01*
X144140000Y-93340000D02*
X140330000Y-93340000D01*
X140330000Y-93340000D02*
X133980000Y-93340000D01*
X144370000Y-93110000D02*
X144140000Y-93340000D01*
X161920000Y-111120000D02*
X160650000Y-111120000D01*
X158110000Y-106040000D02*
X158110000Y-93420000D01*
X159380000Y-107310000D02*
X158110000Y-106040000D01*
X159380000Y-109850000D02*
X159380000Y-107310000D01*
X160650000Y-111120000D02*
X159380000Y-109850000D01*
X154300000Y-93420000D02*
X158110000Y-93420000D01*
X158110000Y-93420000D02*
X175810000Y-93420000D01*
X175810000Y-93420000D02*
X175890000Y-93340000D01*
X149220000Y-93110000D02*
X151530000Y-93110000D01*
X151840000Y-93420000D02*
X154300000Y-93420000D01*
X151530000Y-93110000D02*
X151840000Y-93420000D01*
X140330000Y-108580000D02*
X140330000Y-122550000D01*
X133980000Y-122550000D02*
X140330000Y-122550000D01*
X140330000Y-122550000D02*
X146680000Y-122550000D01*
X161920000Y-103500000D02*
X172080000Y-103500000D01*
X173350000Y-104770000D02*
X173350000Y-122550000D01*
X172080000Y-103500000D02*
X173350000Y-104770000D01*
X154300000Y-111120000D02*
X155570000Y-111120000D01*
X156840000Y-112390000D02*
X156840000Y-122550000D01*
X155570000Y-111120000D02*
X156840000Y-112390000D01*
X146680000Y-116200000D02*
X146680000Y-122550000D01*
X146680000Y-122550000D02*
X156840000Y-122550000D01*
X156840000Y-122550000D02*
X173350000Y-122550000D01*
X173350000Y-122550000D02*
X175890000Y-122550000D01*
X154300000Y-103500000D02*
X154300000Y-98420000D01*
X154300000Y-117470000D02*
X151760000Y-117470000D01*
X150490000Y-116200000D02*
X150490000Y-108580000D01*
X151760000Y-117470000D02*
X150490000Y-116200000D01*
X146680000Y-108580000D02*
X150490000Y-108580000D01*
X150490000Y-108580000D02*
X154300000Y-108580000D01*
X161920000Y-106040000D02*
X168270000Y-106040000D01*
M02*
