G04 #@! TF.FileFunction,Legend,Top*
%FSLAX46Y46*%
G04 Gerber Fmt 4.6, Leading zero omitted, Abs format (unit mm)*
G04 Created by KiCad (PCBNEW 4.0.7) date 02/11/18 19:05:46*
%MOMM*%
%LPD*%
G01*
G04 APERTURE LIST*
%ADD10C,0.100000*%
%ADD11C,0.120000*%
%ADD12C,0.150000*%
G04 APERTURE END LIST*
D10*
D11*
X148240830Y-92013564D02*
G75*
G03X148240000Y-95705996I979170J-1846436D01*
G01*
X150199170Y-92013564D02*
G75*
G02X150200000Y-95705996I-979170J-1846436D01*
G01*
X150199170Y-92013564D02*
G75*
G03X148240000Y-92014004I-979170J-1846436D01*
G01*
X150000000Y-93860000D02*
X151270000Y-93860000D01*
X147170000Y-93860000D02*
X148440000Y-93860000D01*
X147170000Y-93820000D02*
X148440000Y-93820000D01*
X150000000Y-93820000D02*
X151270000Y-93820000D01*
X147171000Y-93780000D02*
X148440000Y-93780000D01*
X150000000Y-93780000D02*
X151269000Y-93780000D01*
X147173000Y-93740000D02*
X148440000Y-93740000D01*
X150000000Y-93740000D02*
X151267000Y-93740000D01*
X147176000Y-93700000D02*
X148440000Y-93700000D01*
X150000000Y-93700000D02*
X151264000Y-93700000D01*
X147179000Y-93660000D02*
X148440000Y-93660000D01*
X150000000Y-93660000D02*
X151261000Y-93660000D01*
X147183000Y-93620000D02*
X148440000Y-93620000D01*
X150000000Y-93620000D02*
X151257000Y-93620000D01*
X147188000Y-93580000D02*
X148440000Y-93580000D01*
X150000000Y-93580000D02*
X151252000Y-93580000D01*
X147194000Y-93540000D02*
X148440000Y-93540000D01*
X150000000Y-93540000D02*
X151246000Y-93540000D01*
X147201000Y-93500000D02*
X148440000Y-93500000D01*
X150000000Y-93500000D02*
X151239000Y-93500000D01*
X147208000Y-93460000D02*
X148440000Y-93460000D01*
X150000000Y-93460000D02*
X151232000Y-93460000D01*
X147216000Y-93420000D02*
X148440000Y-93420000D01*
X150000000Y-93420000D02*
X151224000Y-93420000D01*
X147225000Y-93380000D02*
X148440000Y-93380000D01*
X150000000Y-93380000D02*
X151215000Y-93380000D01*
X147235000Y-93340000D02*
X148440000Y-93340000D01*
X150000000Y-93340000D02*
X151205000Y-93340000D01*
X147246000Y-93300000D02*
X148440000Y-93300000D01*
X150000000Y-93300000D02*
X151194000Y-93300000D01*
X147257000Y-93260000D02*
X148440000Y-93260000D01*
X150000000Y-93260000D02*
X151183000Y-93260000D01*
X147270000Y-93220000D02*
X148440000Y-93220000D01*
X150000000Y-93220000D02*
X151170000Y-93220000D01*
X147283000Y-93180000D02*
X148440000Y-93180000D01*
X150000000Y-93180000D02*
X151157000Y-93180000D01*
X147297000Y-93139000D02*
X148440000Y-93139000D01*
X150000000Y-93139000D02*
X151143000Y-93139000D01*
X147313000Y-93099000D02*
X148440000Y-93099000D01*
X150000000Y-93099000D02*
X151127000Y-93099000D01*
X147329000Y-93059000D02*
X148440000Y-93059000D01*
X150000000Y-93059000D02*
X151111000Y-93059000D01*
X147346000Y-93019000D02*
X148440000Y-93019000D01*
X150000000Y-93019000D02*
X151094000Y-93019000D01*
X147364000Y-92979000D02*
X148440000Y-92979000D01*
X150000000Y-92979000D02*
X151076000Y-92979000D01*
X147383000Y-92939000D02*
X148440000Y-92939000D01*
X150000000Y-92939000D02*
X151057000Y-92939000D01*
X147403000Y-92899000D02*
X148440000Y-92899000D01*
X150000000Y-92899000D02*
X151037000Y-92899000D01*
X147424000Y-92859000D02*
X148440000Y-92859000D01*
X150000000Y-92859000D02*
X151016000Y-92859000D01*
X147447000Y-92819000D02*
X148440000Y-92819000D01*
X150000000Y-92819000D02*
X150993000Y-92819000D01*
X147470000Y-92779000D02*
X148440000Y-92779000D01*
X150000000Y-92779000D02*
X150970000Y-92779000D01*
X147495000Y-92739000D02*
X148440000Y-92739000D01*
X150000000Y-92739000D02*
X150945000Y-92739000D01*
X147521000Y-92699000D02*
X148440000Y-92699000D01*
X150000000Y-92699000D02*
X150919000Y-92699000D01*
X147548000Y-92659000D02*
X148440000Y-92659000D01*
X150000000Y-92659000D02*
X150892000Y-92659000D01*
X147577000Y-92619000D02*
X148440000Y-92619000D01*
X150000000Y-92619000D02*
X150863000Y-92619000D01*
X147607000Y-92579000D02*
X148440000Y-92579000D01*
X150000000Y-92579000D02*
X150833000Y-92579000D01*
X147639000Y-92539000D02*
X148440000Y-92539000D01*
X150000000Y-92539000D02*
X150801000Y-92539000D01*
X147673000Y-92499000D02*
X148440000Y-92499000D01*
X150000000Y-92499000D02*
X150767000Y-92499000D01*
X147708000Y-92459000D02*
X148440000Y-92459000D01*
X150000000Y-92459000D02*
X150732000Y-92459000D01*
X147745000Y-92419000D02*
X148440000Y-92419000D01*
X150000000Y-92419000D02*
X150695000Y-92419000D01*
X147784000Y-92379000D02*
X148440000Y-92379000D01*
X150000000Y-92379000D02*
X150656000Y-92379000D01*
X147825000Y-92339000D02*
X148440000Y-92339000D01*
X150000000Y-92339000D02*
X150615000Y-92339000D01*
X147869000Y-92299000D02*
X150571000Y-92299000D01*
X147915000Y-92259000D02*
X150525000Y-92259000D01*
X147964000Y-92219000D02*
X150476000Y-92219000D01*
X148016000Y-92179000D02*
X150424000Y-92179000D01*
X148072000Y-92139000D02*
X150368000Y-92139000D01*
X148132000Y-92099000D02*
X150308000Y-92099000D01*
X148197000Y-92059000D02*
X150243000Y-92059000D01*
X148268000Y-92019000D02*
X150172000Y-92019000D01*
X148346000Y-91979000D02*
X150094000Y-91979000D01*
X148434000Y-91939000D02*
X150006000Y-91939000D01*
X148534000Y-91899000D02*
X149906000Y-91899000D01*
X148653000Y-91859000D02*
X149787000Y-91859000D01*
X148805000Y-91819000D02*
X149635000Y-91819000D01*
X149055000Y-91779000D02*
X149385000Y-91779000D01*
X149220000Y-96310000D02*
X149220000Y-95410000D01*
X148770000Y-95860000D02*
X149670000Y-95860000D01*
X139150864Y-104312180D02*
G75*
G03X139150000Y-110347482I1179136J-3017820D01*
G01*
X141509136Y-104312180D02*
G75*
G02X141510000Y-110347482I-1179136J-3017820D01*
G01*
X141509136Y-104312180D02*
G75*
G03X139150000Y-104312518I-1179136J-3017820D01*
G01*
X137130000Y-107330000D02*
X143530000Y-107330000D01*
X137130000Y-107290000D02*
X143530000Y-107290000D01*
X137130000Y-107250000D02*
X143530000Y-107250000D01*
X137132000Y-107210000D02*
X143528000Y-107210000D01*
X137133000Y-107170000D02*
X143527000Y-107170000D01*
X137136000Y-107130000D02*
X143524000Y-107130000D01*
X137138000Y-107090000D02*
X143522000Y-107090000D01*
X137142000Y-107050000D02*
X139350000Y-107050000D01*
X141310000Y-107050000D02*
X143518000Y-107050000D01*
X137145000Y-107010000D02*
X139350000Y-107010000D01*
X141310000Y-107010000D02*
X143515000Y-107010000D01*
X137150000Y-106970000D02*
X139350000Y-106970000D01*
X141310000Y-106970000D02*
X143510000Y-106970000D01*
X137154000Y-106930000D02*
X139350000Y-106930000D01*
X141310000Y-106930000D02*
X143506000Y-106930000D01*
X137160000Y-106890000D02*
X139350000Y-106890000D01*
X141310000Y-106890000D02*
X143500000Y-106890000D01*
X137165000Y-106850000D02*
X139350000Y-106850000D01*
X141310000Y-106850000D02*
X143495000Y-106850000D01*
X137172000Y-106810000D02*
X139350000Y-106810000D01*
X141310000Y-106810000D02*
X143488000Y-106810000D01*
X137178000Y-106770000D02*
X139350000Y-106770000D01*
X141310000Y-106770000D02*
X143482000Y-106770000D01*
X137186000Y-106730000D02*
X139350000Y-106730000D01*
X141310000Y-106730000D02*
X143474000Y-106730000D01*
X137193000Y-106690000D02*
X139350000Y-106690000D01*
X141310000Y-106690000D02*
X143467000Y-106690000D01*
X137202000Y-106650000D02*
X139350000Y-106650000D01*
X141310000Y-106650000D02*
X143458000Y-106650000D01*
X137211000Y-106609000D02*
X139350000Y-106609000D01*
X141310000Y-106609000D02*
X143449000Y-106609000D01*
X137220000Y-106569000D02*
X139350000Y-106569000D01*
X141310000Y-106569000D02*
X143440000Y-106569000D01*
X137230000Y-106529000D02*
X139350000Y-106529000D01*
X141310000Y-106529000D02*
X143430000Y-106529000D01*
X137240000Y-106489000D02*
X139350000Y-106489000D01*
X141310000Y-106489000D02*
X143420000Y-106489000D01*
X137251000Y-106449000D02*
X139350000Y-106449000D01*
X141310000Y-106449000D02*
X143409000Y-106449000D01*
X137263000Y-106409000D02*
X139350000Y-106409000D01*
X141310000Y-106409000D02*
X143397000Y-106409000D01*
X137275000Y-106369000D02*
X139350000Y-106369000D01*
X141310000Y-106369000D02*
X143385000Y-106369000D01*
X137288000Y-106329000D02*
X139350000Y-106329000D01*
X141310000Y-106329000D02*
X143372000Y-106329000D01*
X137301000Y-106289000D02*
X139350000Y-106289000D01*
X141310000Y-106289000D02*
X143359000Y-106289000D01*
X137315000Y-106249000D02*
X139350000Y-106249000D01*
X141310000Y-106249000D02*
X143345000Y-106249000D01*
X137329000Y-106209000D02*
X139350000Y-106209000D01*
X141310000Y-106209000D02*
X143331000Y-106209000D01*
X137344000Y-106169000D02*
X139350000Y-106169000D01*
X141310000Y-106169000D02*
X143316000Y-106169000D01*
X137360000Y-106129000D02*
X139350000Y-106129000D01*
X141310000Y-106129000D02*
X143300000Y-106129000D01*
X137376000Y-106089000D02*
X139350000Y-106089000D01*
X141310000Y-106089000D02*
X143284000Y-106089000D01*
X137393000Y-106049000D02*
X139350000Y-106049000D01*
X141310000Y-106049000D02*
X143267000Y-106049000D01*
X137411000Y-106009000D02*
X139350000Y-106009000D01*
X141310000Y-106009000D02*
X143249000Y-106009000D01*
X137429000Y-105969000D02*
X139350000Y-105969000D01*
X141310000Y-105969000D02*
X143231000Y-105969000D01*
X137448000Y-105929000D02*
X139350000Y-105929000D01*
X141310000Y-105929000D02*
X143212000Y-105929000D01*
X137467000Y-105889000D02*
X139350000Y-105889000D01*
X141310000Y-105889000D02*
X143193000Y-105889000D01*
X137487000Y-105849000D02*
X139350000Y-105849000D01*
X141310000Y-105849000D02*
X143173000Y-105849000D01*
X137508000Y-105809000D02*
X139350000Y-105809000D01*
X141310000Y-105809000D02*
X143152000Y-105809000D01*
X137530000Y-105769000D02*
X139350000Y-105769000D01*
X141310000Y-105769000D02*
X143130000Y-105769000D01*
X137552000Y-105729000D02*
X139350000Y-105729000D01*
X141310000Y-105729000D02*
X143108000Y-105729000D01*
X137575000Y-105689000D02*
X139350000Y-105689000D01*
X141310000Y-105689000D02*
X143085000Y-105689000D01*
X137599000Y-105649000D02*
X139350000Y-105649000D01*
X141310000Y-105649000D02*
X143061000Y-105649000D01*
X137624000Y-105609000D02*
X139350000Y-105609000D01*
X141310000Y-105609000D02*
X143036000Y-105609000D01*
X137649000Y-105569000D02*
X139350000Y-105569000D01*
X141310000Y-105569000D02*
X143011000Y-105569000D01*
X137676000Y-105529000D02*
X139350000Y-105529000D01*
X141310000Y-105529000D02*
X142984000Y-105529000D01*
X137703000Y-105489000D02*
X139350000Y-105489000D01*
X141310000Y-105489000D02*
X142957000Y-105489000D01*
X137731000Y-105449000D02*
X139350000Y-105449000D01*
X141310000Y-105449000D02*
X142929000Y-105449000D01*
X137760000Y-105409000D02*
X139350000Y-105409000D01*
X141310000Y-105409000D02*
X142900000Y-105409000D01*
X137790000Y-105369000D02*
X139350000Y-105369000D01*
X141310000Y-105369000D02*
X142870000Y-105369000D01*
X137820000Y-105329000D02*
X139350000Y-105329000D01*
X141310000Y-105329000D02*
X142840000Y-105329000D01*
X137852000Y-105289000D02*
X139350000Y-105289000D01*
X141310000Y-105289000D02*
X142808000Y-105289000D01*
X137885000Y-105249000D02*
X139350000Y-105249000D01*
X141310000Y-105249000D02*
X142775000Y-105249000D01*
X137919000Y-105209000D02*
X139350000Y-105209000D01*
X141310000Y-105209000D02*
X142741000Y-105209000D01*
X137955000Y-105169000D02*
X139350000Y-105169000D01*
X141310000Y-105169000D02*
X142705000Y-105169000D01*
X137991000Y-105129000D02*
X139350000Y-105129000D01*
X141310000Y-105129000D02*
X142669000Y-105129000D01*
X138029000Y-105089000D02*
X142631000Y-105089000D01*
X138068000Y-105049000D02*
X142592000Y-105049000D01*
X138108000Y-105009000D02*
X142552000Y-105009000D01*
X138150000Y-104969000D02*
X142510000Y-104969000D01*
X138193000Y-104929000D02*
X142467000Y-104929000D01*
X138238000Y-104889000D02*
X142422000Y-104889000D01*
X138285000Y-104849000D02*
X142375000Y-104849000D01*
X138333000Y-104809000D02*
X142327000Y-104809000D01*
X138384000Y-104769000D02*
X142276000Y-104769000D01*
X138436000Y-104729000D02*
X142224000Y-104729000D01*
X138491000Y-104689000D02*
X142169000Y-104689000D01*
X138549000Y-104649000D02*
X142111000Y-104649000D01*
X138609000Y-104609000D02*
X142051000Y-104609000D01*
X138672000Y-104569000D02*
X141988000Y-104569000D01*
X138739000Y-104529000D02*
X141921000Y-104529000D01*
X138810000Y-104489000D02*
X141850000Y-104489000D01*
X138885000Y-104449000D02*
X141775000Y-104449000D01*
X138966000Y-104409000D02*
X141694000Y-104409000D01*
X139052000Y-104369000D02*
X141608000Y-104369000D01*
X139146000Y-104329000D02*
X141514000Y-104329000D01*
X139249000Y-104289000D02*
X141411000Y-104289000D01*
X139364000Y-104249000D02*
X141296000Y-104249000D01*
X139496000Y-104209000D02*
X141164000Y-104209000D01*
X139654000Y-104169000D02*
X141006000Y-104169000D01*
X139862000Y-104129000D02*
X140798000Y-104129000D01*
X140330000Y-110780000D02*
X140330000Y-109580000D01*
X139680000Y-110180000D02*
X140980000Y-110180000D01*
X152990000Y-99730000D02*
X152990000Y-92110000D01*
X155610000Y-99730000D02*
X155610000Y-92110000D01*
X152990000Y-99730000D02*
X155610000Y-99730000D01*
X152990000Y-92110000D02*
X155610000Y-92110000D01*
X145820000Y-114250000D02*
X147540000Y-114250000D01*
X147540000Y-114250000D02*
X147540000Y-110530000D01*
X147540000Y-110530000D02*
X145820000Y-110530000D01*
X145820000Y-110530000D02*
X145820000Y-114250000D01*
X146680000Y-115320000D02*
X146680000Y-114250000D01*
X146680000Y-109460000D02*
X146680000Y-110530000D01*
X156250000Y-116610000D02*
X156250000Y-118330000D01*
X156250000Y-118330000D02*
X159970000Y-118330000D01*
X159970000Y-118330000D02*
X159970000Y-116610000D01*
X159970000Y-116610000D02*
X156250000Y-116610000D01*
X155180000Y-117470000D02*
X156250000Y-117470000D01*
X161040000Y-117470000D02*
X159970000Y-117470000D01*
X159110000Y-112510000D02*
X160480000Y-112510000D01*
X160480000Y-112510000D02*
X160480000Y-102110000D01*
X160480000Y-102110000D02*
X155740000Y-102110000D01*
X155740000Y-102110000D02*
X155740000Y-112510000D01*
X155740000Y-112510000D02*
X157110000Y-112510000D01*
X157110000Y-112510000D02*
G75*
G02X159110000Y-112510000I1000000J0D01*
G01*
D12*
X146267143Y-94026666D02*
X146314762Y-94074285D01*
X146362381Y-94217142D01*
X146362381Y-94312380D01*
X146314762Y-94455238D01*
X146219524Y-94550476D01*
X146124286Y-94598095D01*
X145933810Y-94645714D01*
X145790952Y-94645714D01*
X145600476Y-94598095D01*
X145505238Y-94550476D01*
X145410000Y-94455238D01*
X145362381Y-94312380D01*
X145362381Y-94217142D01*
X145410000Y-94074285D01*
X145457619Y-94026666D01*
X146362381Y-93074285D02*
X146362381Y-93645714D01*
X146362381Y-93360000D02*
X145362381Y-93360000D01*
X145505238Y-93455238D01*
X145600476Y-93550476D01*
X145648095Y-93645714D01*
X136227143Y-107496666D02*
X136274762Y-107544285D01*
X136322381Y-107687142D01*
X136322381Y-107782380D01*
X136274762Y-107925238D01*
X136179524Y-108020476D01*
X136084286Y-108068095D01*
X135893810Y-108115714D01*
X135750952Y-108115714D01*
X135560476Y-108068095D01*
X135465238Y-108020476D01*
X135370000Y-107925238D01*
X135322381Y-107782380D01*
X135322381Y-107687142D01*
X135370000Y-107544285D01*
X135417619Y-107496666D01*
X135417619Y-107115714D02*
X135370000Y-107068095D01*
X135322381Y-106972857D01*
X135322381Y-106734761D01*
X135370000Y-106639523D01*
X135417619Y-106591904D01*
X135512857Y-106544285D01*
X135608095Y-106544285D01*
X135750952Y-106591904D01*
X136322381Y-107163333D01*
X136322381Y-106544285D01*
X152097143Y-96086666D02*
X152144762Y-96134285D01*
X152192381Y-96277142D01*
X152192381Y-96372380D01*
X152144762Y-96515238D01*
X152049524Y-96610476D01*
X151954286Y-96658095D01*
X151763810Y-96705714D01*
X151620952Y-96705714D01*
X151430476Y-96658095D01*
X151335238Y-96610476D01*
X151240000Y-96515238D01*
X151192381Y-96372380D01*
X151192381Y-96277142D01*
X151240000Y-96134285D01*
X151287619Y-96086666D01*
X151192381Y-95753333D02*
X151192381Y-95134285D01*
X151573333Y-95467619D01*
X151573333Y-95324761D01*
X151620952Y-95229523D01*
X151668571Y-95181904D01*
X151763810Y-95134285D01*
X152001905Y-95134285D01*
X152097143Y-95181904D01*
X152144762Y-95229523D01*
X152192381Y-95324761D01*
X152192381Y-95610476D01*
X152144762Y-95705714D01*
X152097143Y-95753333D01*
X145272381Y-112556666D02*
X144796190Y-112890000D01*
X145272381Y-113128095D02*
X144272381Y-113128095D01*
X144272381Y-112747142D01*
X144320000Y-112651904D01*
X144367619Y-112604285D01*
X144462857Y-112556666D01*
X144605714Y-112556666D01*
X144700952Y-112604285D01*
X144748571Y-112651904D01*
X144796190Y-112747142D01*
X144796190Y-113128095D01*
X145272381Y-111604285D02*
X145272381Y-112175714D01*
X145272381Y-111890000D02*
X144272381Y-111890000D01*
X144415238Y-111985238D01*
X144510476Y-112080476D01*
X144558095Y-112175714D01*
X157943334Y-116062381D02*
X157610000Y-115586190D01*
X157371905Y-116062381D02*
X157371905Y-115062381D01*
X157752858Y-115062381D01*
X157848096Y-115110000D01*
X157895715Y-115157619D01*
X157943334Y-115252857D01*
X157943334Y-115395714D01*
X157895715Y-115490952D01*
X157848096Y-115538571D01*
X157752858Y-115586190D01*
X157371905Y-115586190D01*
X158324286Y-115157619D02*
X158371905Y-115110000D01*
X158467143Y-115062381D01*
X158705239Y-115062381D01*
X158800477Y-115110000D01*
X158848096Y-115157619D01*
X158895715Y-115252857D01*
X158895715Y-115348095D01*
X158848096Y-115490952D01*
X158276667Y-116062381D01*
X158895715Y-116062381D01*
X157348095Y-112962381D02*
X157348095Y-113771905D01*
X157395714Y-113867143D01*
X157443333Y-113914762D01*
X157538571Y-113962381D01*
X157729048Y-113962381D01*
X157824286Y-113914762D01*
X157871905Y-113867143D01*
X157919524Y-113771905D01*
X157919524Y-112962381D01*
X158919524Y-113962381D02*
X158348095Y-113962381D01*
X158633809Y-113962381D02*
X158633809Y-112962381D01*
X158538571Y-113105238D01*
X158443333Y-113200476D01*
X158348095Y-113248095D01*
M02*
