M48
;DRILL file {KiCad 4.0.7} date 02/11/18 19:05:56
;FORMAT={-:-/ absolute / inch / decimal}
FMAT,2
INCH,TZ
T1C0.024
T2C0.028
T3C0.031
T4C0.039
%
G90
G05
M72
T1
X5.8748Y-3.6657
X5.8748Y-3.7248
T2
X5.7748Y-4.2748
X5.7748Y-4.5748
X6.0748Y-4.6248
X6.3748Y-4.6248
T3
X5.2748Y-3.6748
X5.2748Y-4.8248
X5.5248Y-4.1764
X5.5248Y-4.2748
X6.0748Y-4.0748
X6.0748Y-4.1748
X6.0748Y-4.2748
X6.0748Y-4.3748
X6.3748Y-4.0748
X6.3748Y-4.1748
X6.3748Y-4.2748
X6.3748Y-4.3748
X6.6248Y-4.1748
X6.9248Y-3.6748
X6.9248Y-4.8248
T4
X5.1181Y-3.3465
X5.1181Y-5.315
X6.0748Y-3.678
X6.0748Y-3.8748
X7.0866Y-3.3465
X7.0866Y-5.315
T0
M30
