M48
;DRILL file {KiCad 4.0.7} date 02/11/18 20:18:56
;FORMAT={-:-/ absolute / inch / decimal}
FMAT,2
INCH,TZ
T1C0.024
T2C0.031
T3C0.039
%
G90
G05
M72
T1
X4.45Y-3.9909
X4.45Y-4.05
T2
X3.75Y-4.
X3.75Y-5.1
X3.85Y-4.4516
X3.85Y-4.55
X4.4Y-4.4
X4.4Y-5.
X4.6Y-4.25
X4.65Y-4.9
X4.8Y-4.25
X4.8Y-4.35
X4.8Y-4.45
X4.8Y-4.55
X4.9Y-4.
X5.1Y-4.25
X5.1Y-4.35
X5.1Y-4.45
X5.1Y-4.55
X5.25Y-4.9
X5.35Y-4.15
X5.35Y-4.35
X5.7Y-4.
X5.7Y-5.1
T3
X3.7402Y-3.7402
X3.7402Y-5.7087
X5.7087Y-3.7402
X5.7087Y-5.7087
T0
M30
