%FSLAX45Y45*%
G04 Gerber Fmt 4.5, Leading zero omitted, Abs format (unit mm)*
G04 Created by KiCad (PCBNEW 4.0.7) date 02/11/18 20:18:56*
%MOMM*%
%LPD*%
G01*
G04 APERTURE LIST*
%ADD10C,0.127000*%
%ADD11C,0.150000*%
%ADD12C,0.200000*%
%ADD13C,0.300000*%
G04 APERTURE END LIST*
D10*
D11*
X9000000Y-15000000D02*
X9000000Y-9000000D01*
X15000000Y-15000000D02*
X9000000Y-15000000D01*
X15000000Y-9000000D02*
X15000000Y-15000000D01*
X9000000Y-9000000D02*
X15000000Y-9000000D01*
D12*
X11273000Y-10107000D02*
X11333000Y-10167000D01*
X11333000Y-10107000D02*
X11273000Y-10167000D01*
X11273000Y-10257000D02*
X11333000Y-10317000D01*
X11333000Y-10257000D02*
X11273000Y-10317000D01*
X9565000Y-10160000D02*
G75*
G03X9565000Y-10160000I-40000J0D01*
G01*
X9565000Y-12954000D02*
G75*
G03X9565000Y-12954000I-40000J0D01*
G01*
X9819000Y-11307000D02*
G75*
G03X9819000Y-11307000I-40000J0D01*
G01*
X9819000Y-11557000D02*
G75*
G03X9819000Y-11557000I-40000J0D01*
G01*
X11216000Y-11176000D02*
G75*
G03X11216000Y-11176000I-40000J0D01*
G01*
X11216000Y-12700000D02*
G75*
G03X11216000Y-12700000I-40000J0D01*
G01*
X11724000Y-10795000D02*
G75*
G03X11724000Y-10795000I-40000J0D01*
G01*
X11851000Y-12446000D02*
G75*
G03X11851000Y-12446000I-40000J0D01*
G01*
X12232000Y-10795000D02*
G75*
G03X12232000Y-10795000I-40000J0D01*
G01*
X12232000Y-11049000D02*
G75*
G03X12232000Y-11049000I-40000J0D01*
G01*
X12232000Y-11303000D02*
G75*
G03X12232000Y-11303000I-40000J0D01*
G01*
X12232000Y-11557000D02*
G75*
G03X12232000Y-11557000I-40000J0D01*
G01*
X12486000Y-10160000D02*
G75*
G03X12486000Y-10160000I-40000J0D01*
G01*
X12994000Y-10795000D02*
G75*
G03X12994000Y-10795000I-40000J0D01*
G01*
X12994000Y-11049000D02*
G75*
G03X12994000Y-11049000I-40000J0D01*
G01*
X12994000Y-11303000D02*
G75*
G03X12994000Y-11303000I-40000J0D01*
G01*
X12994000Y-11557000D02*
G75*
G03X12994000Y-11557000I-40000J0D01*
G01*
X13375000Y-12446000D02*
G75*
G03X13375000Y-12446000I-40000J0D01*
G01*
X13629000Y-10541000D02*
G75*
G03X13629000Y-10541000I-40000J0D01*
G01*
X13629000Y-11049000D02*
G75*
G03X13629000Y-11049000I-40000J0D01*
G01*
X14518000Y-10160000D02*
G75*
G03X14518000Y-10160000I-40000J0D01*
G01*
X14518000Y-12954000D02*
G75*
G03X14518000Y-12954000I-40000J0D01*
G01*
X9500000Y-9450000D02*
X9500000Y-9550000D01*
X9450000Y-9500000D02*
X9550000Y-9500000D01*
X9500000Y-14450000D02*
X9500000Y-14550000D01*
X9450000Y-14500000D02*
X9550000Y-14500000D01*
X14500000Y-9450000D02*
X14500000Y-9550000D01*
X14450000Y-9500000D02*
X14550000Y-9500000D01*
X14500000Y-14450000D02*
X14500000Y-14550000D01*
X14450000Y-14500000D02*
X14550000Y-14500000D01*
D13*
X9263929Y-15473214D02*
X9263929Y-15173214D01*
X9335357Y-15173214D01*
X9378214Y-15187500D01*
X9406786Y-15216071D01*
X9421071Y-15244643D01*
X9435357Y-15301786D01*
X9435357Y-15344643D01*
X9421071Y-15401786D01*
X9406786Y-15430357D01*
X9378214Y-15458929D01*
X9335357Y-15473214D01*
X9263929Y-15473214D01*
X9563929Y-15473214D02*
X9563929Y-15273214D01*
X9563929Y-15330357D02*
X9578214Y-15301786D01*
X9592500Y-15287500D01*
X9621071Y-15273214D01*
X9649643Y-15273214D01*
X9749643Y-15473214D02*
X9749643Y-15273214D01*
X9749643Y-15173214D02*
X9735357Y-15187500D01*
X9749643Y-15201786D01*
X9763929Y-15187500D01*
X9749643Y-15173214D01*
X9749643Y-15201786D01*
X9935357Y-15473214D02*
X9906786Y-15458929D01*
X9892500Y-15430357D01*
X9892500Y-15173214D01*
X10092500Y-15473214D02*
X10063929Y-15458929D01*
X10049643Y-15430357D01*
X10049643Y-15173214D01*
X10435357Y-15473214D02*
X10435357Y-15173214D01*
X10535357Y-15387500D01*
X10635357Y-15173214D01*
X10635357Y-15473214D01*
X10906786Y-15473214D02*
X10906786Y-15316071D01*
X10892500Y-15287500D01*
X10863929Y-15273214D01*
X10806786Y-15273214D01*
X10778214Y-15287500D01*
X10906786Y-15458929D02*
X10878214Y-15473214D01*
X10806786Y-15473214D01*
X10778214Y-15458929D01*
X10763929Y-15430357D01*
X10763929Y-15401786D01*
X10778214Y-15373214D01*
X10806786Y-15358929D01*
X10878214Y-15358929D01*
X10906786Y-15344643D01*
X11049643Y-15273214D02*
X11049643Y-15573214D01*
X11049643Y-15287500D02*
X11078214Y-15273214D01*
X11135357Y-15273214D01*
X11163929Y-15287500D01*
X11178214Y-15301786D01*
X11192500Y-15330357D01*
X11192500Y-15416071D01*
X11178214Y-15444643D01*
X11163929Y-15458929D01*
X11135357Y-15473214D01*
X11078214Y-15473214D01*
X11049643Y-15458929D01*
X11321071Y-15444643D02*
X11335357Y-15458929D01*
X11321071Y-15473214D01*
X11306786Y-15458929D01*
X11321071Y-15444643D01*
X11321071Y-15473214D01*
X11321071Y-15287500D02*
X11335357Y-15301786D01*
X11321071Y-15316071D01*
X11306786Y-15301786D01*
X11321071Y-15287500D01*
X11321071Y-15316071D01*
X8932500Y-15937500D02*
X8992500Y-15997500D01*
X8992500Y-15937500D02*
X8932500Y-15997500D01*
X9321071Y-15803214D02*
X9349643Y-15803214D01*
X9378214Y-15817500D01*
X9392500Y-15831786D01*
X9406786Y-15860357D01*
X9421071Y-15917500D01*
X9421071Y-15988929D01*
X9406786Y-16046071D01*
X9392500Y-16074643D01*
X9378214Y-16088929D01*
X9349643Y-16103214D01*
X9321071Y-16103214D01*
X9292500Y-16088929D01*
X9278214Y-16074643D01*
X9263929Y-16046071D01*
X9249643Y-15988929D01*
X9249643Y-15917500D01*
X9263929Y-15860357D01*
X9278214Y-15831786D01*
X9292500Y-15817500D01*
X9321071Y-15803214D01*
X9549643Y-16074643D02*
X9563929Y-16088929D01*
X9549643Y-16103214D01*
X9535357Y-16088929D01*
X9549643Y-16074643D01*
X9549643Y-16103214D01*
X9821071Y-15803214D02*
X9763928Y-15803214D01*
X9735357Y-15817500D01*
X9721071Y-15831786D01*
X9692500Y-15874643D01*
X9678214Y-15931786D01*
X9678214Y-16046071D01*
X9692500Y-16074643D01*
X9706786Y-16088929D01*
X9735357Y-16103214D01*
X9792500Y-16103214D01*
X9821071Y-16088929D01*
X9835357Y-16074643D01*
X9849643Y-16046071D01*
X9849643Y-15974643D01*
X9835357Y-15946071D01*
X9821071Y-15931786D01*
X9792500Y-15917500D01*
X9735357Y-15917500D01*
X9706786Y-15931786D01*
X9692500Y-15946071D01*
X9678214Y-15974643D01*
X10035357Y-15803214D02*
X10063929Y-15803214D01*
X10092500Y-15817500D01*
X10106786Y-15831786D01*
X10121071Y-15860357D01*
X10135357Y-15917500D01*
X10135357Y-15988929D01*
X10121071Y-16046071D01*
X10106786Y-16074643D01*
X10092500Y-16088929D01*
X10063929Y-16103214D01*
X10035357Y-16103214D01*
X10006786Y-16088929D01*
X9992500Y-16074643D01*
X9978214Y-16046071D01*
X9963929Y-15988929D01*
X9963929Y-15917500D01*
X9978214Y-15860357D01*
X9992500Y-15831786D01*
X10006786Y-15817500D01*
X10035357Y-15803214D01*
X10263929Y-16103214D02*
X10263929Y-15903214D01*
X10263929Y-15931786D02*
X10278214Y-15917500D01*
X10306786Y-15903214D01*
X10349643Y-15903214D01*
X10378214Y-15917500D01*
X10392500Y-15946071D01*
X10392500Y-16103214D01*
X10392500Y-15946071D02*
X10406786Y-15917500D01*
X10435357Y-15903214D01*
X10478214Y-15903214D01*
X10506786Y-15917500D01*
X10521071Y-15946071D01*
X10521071Y-16103214D01*
X10663929Y-16103214D02*
X10663929Y-15903214D01*
X10663929Y-15931786D02*
X10678214Y-15917500D01*
X10706786Y-15903214D01*
X10749643Y-15903214D01*
X10778214Y-15917500D01*
X10792500Y-15946071D01*
X10792500Y-16103214D01*
X10792500Y-15946071D02*
X10806786Y-15917500D01*
X10835357Y-15903214D01*
X10878214Y-15903214D01*
X10906786Y-15917500D01*
X10921071Y-15946071D01*
X10921071Y-16103214D01*
X11506786Y-15788929D02*
X11249643Y-16174643D01*
X11892500Y-15803214D02*
X11921071Y-15803214D01*
X11949643Y-15817500D01*
X11963928Y-15831786D01*
X11978214Y-15860357D01*
X11992500Y-15917500D01*
X11992500Y-15988929D01*
X11978214Y-16046071D01*
X11963928Y-16074643D01*
X11949643Y-16088929D01*
X11921071Y-16103214D01*
X11892500Y-16103214D01*
X11863928Y-16088929D01*
X11849643Y-16074643D01*
X11835357Y-16046071D01*
X11821071Y-15988929D01*
X11821071Y-15917500D01*
X11835357Y-15860357D01*
X11849643Y-15831786D01*
X11863928Y-15817500D01*
X11892500Y-15803214D01*
X12121071Y-16074643D02*
X12135357Y-16088929D01*
X12121071Y-16103214D01*
X12106786Y-16088929D01*
X12121071Y-16074643D01*
X12121071Y-16103214D01*
X12321071Y-15803214D02*
X12349643Y-15803214D01*
X12378214Y-15817500D01*
X12392500Y-15831786D01*
X12406785Y-15860357D01*
X12421071Y-15917500D01*
X12421071Y-15988929D01*
X12406785Y-16046071D01*
X12392500Y-16074643D01*
X12378214Y-16088929D01*
X12349643Y-16103214D01*
X12321071Y-16103214D01*
X12292500Y-16088929D01*
X12278214Y-16074643D01*
X12263928Y-16046071D01*
X12249643Y-15988929D01*
X12249643Y-15917500D01*
X12263928Y-15860357D01*
X12278214Y-15831786D01*
X12292500Y-15817500D01*
X12321071Y-15803214D01*
X12535357Y-15831786D02*
X12549643Y-15817500D01*
X12578214Y-15803214D01*
X12649643Y-15803214D01*
X12678214Y-15817500D01*
X12692500Y-15831786D01*
X12706785Y-15860357D01*
X12706785Y-15888929D01*
X12692500Y-15931786D01*
X12521071Y-16103214D01*
X12706785Y-16103214D01*
X12963928Y-15903214D02*
X12963928Y-16103214D01*
X12892500Y-15788929D02*
X12821071Y-16003214D01*
X13006785Y-16003214D01*
X13106786Y-15803214D02*
X13106786Y-15860357D01*
X13221071Y-15803214D02*
X13221071Y-15860357D01*
X13663928Y-16217500D02*
X13649643Y-16203214D01*
X13621071Y-16160357D01*
X13606785Y-16131786D01*
X13592500Y-16088929D01*
X13578214Y-16017500D01*
X13578214Y-15960357D01*
X13592500Y-15888929D01*
X13606785Y-15846071D01*
X13621071Y-15817500D01*
X13649643Y-15774643D01*
X13663928Y-15760357D01*
X13763928Y-15831786D02*
X13778214Y-15817500D01*
X13806785Y-15803214D01*
X13878214Y-15803214D01*
X13906785Y-15817500D01*
X13921071Y-15831786D01*
X13935357Y-15860357D01*
X13935357Y-15888929D01*
X13921071Y-15931786D01*
X13749643Y-16103214D01*
X13935357Y-16103214D01*
X14292500Y-16103214D02*
X14292500Y-15803214D01*
X14421071Y-16103214D02*
X14421071Y-15946071D01*
X14406785Y-15917500D01*
X14378214Y-15903214D01*
X14335357Y-15903214D01*
X14306785Y-15917500D01*
X14292500Y-15931786D01*
X14606785Y-16103214D02*
X14578214Y-16088929D01*
X14563928Y-16074643D01*
X14549643Y-16046071D01*
X14549643Y-15960357D01*
X14563928Y-15931786D01*
X14578214Y-15917500D01*
X14606785Y-15903214D01*
X14649643Y-15903214D01*
X14678214Y-15917500D01*
X14692500Y-15931786D01*
X14706785Y-15960357D01*
X14706785Y-16046071D01*
X14692500Y-16074643D01*
X14678214Y-16088929D01*
X14649643Y-16103214D01*
X14606785Y-16103214D01*
X14878214Y-16103214D02*
X14849643Y-16088929D01*
X14835357Y-16060357D01*
X14835357Y-15803214D01*
X15106786Y-16088929D02*
X15078214Y-16103214D01*
X15021071Y-16103214D01*
X14992500Y-16088929D01*
X14978214Y-16060357D01*
X14978214Y-15946071D01*
X14992500Y-15917500D01*
X15021071Y-15903214D01*
X15078214Y-15903214D01*
X15106786Y-15917500D01*
X15121071Y-15946071D01*
X15121071Y-15974643D01*
X14978214Y-16003214D01*
X15235357Y-16088929D02*
X15263928Y-16103214D01*
X15321071Y-16103214D01*
X15349643Y-16088929D01*
X15363928Y-16060357D01*
X15363928Y-16046071D01*
X15349643Y-16017500D01*
X15321071Y-16003214D01*
X15278214Y-16003214D01*
X15249643Y-15988929D01*
X15235357Y-15960357D01*
X15235357Y-15946071D01*
X15249643Y-15917500D01*
X15278214Y-15903214D01*
X15321071Y-15903214D01*
X15349643Y-15917500D01*
X15463928Y-16217500D02*
X15478214Y-16203214D01*
X15506786Y-16160357D01*
X15521071Y-16131786D01*
X15535357Y-16088929D01*
X15549643Y-16017500D01*
X15549643Y-15960357D01*
X15535357Y-15888929D01*
X15521071Y-15846071D01*
X15506786Y-15817500D01*
X15478214Y-15774643D01*
X15463928Y-15760357D01*
X8992500Y-16363500D02*
G75*
G03X8992500Y-16363500I-40000J0D01*
G01*
X9321071Y-16199214D02*
X9349643Y-16199214D01*
X9378214Y-16213500D01*
X9392500Y-16227786D01*
X9406786Y-16256357D01*
X9421071Y-16313500D01*
X9421071Y-16384929D01*
X9406786Y-16442071D01*
X9392500Y-16470643D01*
X9378214Y-16484929D01*
X9349643Y-16499214D01*
X9321071Y-16499214D01*
X9292500Y-16484929D01*
X9278214Y-16470643D01*
X9263929Y-16442071D01*
X9249643Y-16384929D01*
X9249643Y-16313500D01*
X9263929Y-16256357D01*
X9278214Y-16227786D01*
X9292500Y-16213500D01*
X9321071Y-16199214D01*
X9549643Y-16470643D02*
X9563929Y-16484929D01*
X9549643Y-16499214D01*
X9535357Y-16484929D01*
X9549643Y-16470643D01*
X9549643Y-16499214D01*
X9735357Y-16327786D02*
X9706786Y-16313500D01*
X9692500Y-16299214D01*
X9678214Y-16270643D01*
X9678214Y-16256357D01*
X9692500Y-16227786D01*
X9706786Y-16213500D01*
X9735357Y-16199214D01*
X9792500Y-16199214D01*
X9821071Y-16213500D01*
X9835357Y-16227786D01*
X9849643Y-16256357D01*
X9849643Y-16270643D01*
X9835357Y-16299214D01*
X9821071Y-16313500D01*
X9792500Y-16327786D01*
X9735357Y-16327786D01*
X9706786Y-16342071D01*
X9692500Y-16356357D01*
X9678214Y-16384929D01*
X9678214Y-16442071D01*
X9692500Y-16470643D01*
X9706786Y-16484929D01*
X9735357Y-16499214D01*
X9792500Y-16499214D01*
X9821071Y-16484929D01*
X9835357Y-16470643D01*
X9849643Y-16442071D01*
X9849643Y-16384929D01*
X9835357Y-16356357D01*
X9821071Y-16342071D01*
X9792500Y-16327786D01*
X10035357Y-16199214D02*
X10063929Y-16199214D01*
X10092500Y-16213500D01*
X10106786Y-16227786D01*
X10121071Y-16256357D01*
X10135357Y-16313500D01*
X10135357Y-16384929D01*
X10121071Y-16442071D01*
X10106786Y-16470643D01*
X10092500Y-16484929D01*
X10063929Y-16499214D01*
X10035357Y-16499214D01*
X10006786Y-16484929D01*
X9992500Y-16470643D01*
X9978214Y-16442071D01*
X9963929Y-16384929D01*
X9963929Y-16313500D01*
X9978214Y-16256357D01*
X9992500Y-16227786D01*
X10006786Y-16213500D01*
X10035357Y-16199214D01*
X10263929Y-16499214D02*
X10263929Y-16299214D01*
X10263929Y-16327786D02*
X10278214Y-16313500D01*
X10306786Y-16299214D01*
X10349643Y-16299214D01*
X10378214Y-16313500D01*
X10392500Y-16342071D01*
X10392500Y-16499214D01*
X10392500Y-16342071D02*
X10406786Y-16313500D01*
X10435357Y-16299214D01*
X10478214Y-16299214D01*
X10506786Y-16313500D01*
X10521071Y-16342071D01*
X10521071Y-16499214D01*
X10663929Y-16499214D02*
X10663929Y-16299214D01*
X10663929Y-16327786D02*
X10678214Y-16313500D01*
X10706786Y-16299214D01*
X10749643Y-16299214D01*
X10778214Y-16313500D01*
X10792500Y-16342071D01*
X10792500Y-16499214D01*
X10792500Y-16342071D02*
X10806786Y-16313500D01*
X10835357Y-16299214D01*
X10878214Y-16299214D01*
X10906786Y-16313500D01*
X10921071Y-16342071D01*
X10921071Y-16499214D01*
X11506786Y-16184929D02*
X11249643Y-16570643D01*
X11892500Y-16199214D02*
X11921071Y-16199214D01*
X11949643Y-16213500D01*
X11963928Y-16227786D01*
X11978214Y-16256357D01*
X11992500Y-16313500D01*
X11992500Y-16384929D01*
X11978214Y-16442071D01*
X11963928Y-16470643D01*
X11949643Y-16484929D01*
X11921071Y-16499214D01*
X11892500Y-16499214D01*
X11863928Y-16484929D01*
X11849643Y-16470643D01*
X11835357Y-16442071D01*
X11821071Y-16384929D01*
X11821071Y-16313500D01*
X11835357Y-16256357D01*
X11849643Y-16227786D01*
X11863928Y-16213500D01*
X11892500Y-16199214D01*
X12121071Y-16470643D02*
X12135357Y-16484929D01*
X12121071Y-16499214D01*
X12106786Y-16484929D01*
X12121071Y-16470643D01*
X12121071Y-16499214D01*
X12321071Y-16199214D02*
X12349643Y-16199214D01*
X12378214Y-16213500D01*
X12392500Y-16227786D01*
X12406785Y-16256357D01*
X12421071Y-16313500D01*
X12421071Y-16384929D01*
X12406785Y-16442071D01*
X12392500Y-16470643D01*
X12378214Y-16484929D01*
X12349643Y-16499214D01*
X12321071Y-16499214D01*
X12292500Y-16484929D01*
X12278214Y-16470643D01*
X12263928Y-16442071D01*
X12249643Y-16384929D01*
X12249643Y-16313500D01*
X12263928Y-16256357D01*
X12278214Y-16227786D01*
X12292500Y-16213500D01*
X12321071Y-16199214D01*
X12521071Y-16199214D02*
X12706785Y-16199214D01*
X12606785Y-16313500D01*
X12649643Y-16313500D01*
X12678214Y-16327786D01*
X12692500Y-16342071D01*
X12706785Y-16370643D01*
X12706785Y-16442071D01*
X12692500Y-16470643D01*
X12678214Y-16484929D01*
X12649643Y-16499214D01*
X12563928Y-16499214D01*
X12535357Y-16484929D01*
X12521071Y-16470643D01*
X12992500Y-16499214D02*
X12821071Y-16499214D01*
X12906785Y-16499214D02*
X12906785Y-16199214D01*
X12878214Y-16242071D01*
X12849643Y-16270643D01*
X12821071Y-16284929D01*
X13106786Y-16199214D02*
X13106786Y-16256357D01*
X13221071Y-16199214D02*
X13221071Y-16256357D01*
X13663928Y-16613500D02*
X13649643Y-16599214D01*
X13621071Y-16556357D01*
X13606785Y-16527786D01*
X13592500Y-16484929D01*
X13578214Y-16413500D01*
X13578214Y-16356357D01*
X13592500Y-16284929D01*
X13606785Y-16242071D01*
X13621071Y-16213500D01*
X13649643Y-16170643D01*
X13663928Y-16156357D01*
X13763928Y-16227786D02*
X13778214Y-16213500D01*
X13806785Y-16199214D01*
X13878214Y-16199214D01*
X13906785Y-16213500D01*
X13921071Y-16227786D01*
X13935357Y-16256357D01*
X13935357Y-16284929D01*
X13921071Y-16327786D01*
X13749643Y-16499214D01*
X13935357Y-16499214D01*
X14049643Y-16227786D02*
X14063928Y-16213500D01*
X14092500Y-16199214D01*
X14163928Y-16199214D01*
X14192500Y-16213500D01*
X14206785Y-16227786D01*
X14221071Y-16256357D01*
X14221071Y-16284929D01*
X14206785Y-16327786D01*
X14035357Y-16499214D01*
X14221071Y-16499214D01*
X14578214Y-16499214D02*
X14578214Y-16199214D01*
X14706785Y-16499214D02*
X14706785Y-16342071D01*
X14692500Y-16313500D01*
X14663928Y-16299214D01*
X14621071Y-16299214D01*
X14592500Y-16313500D01*
X14578214Y-16327786D01*
X14892500Y-16499214D02*
X14863928Y-16484929D01*
X14849643Y-16470643D01*
X14835357Y-16442071D01*
X14835357Y-16356357D01*
X14849643Y-16327786D01*
X14863928Y-16313500D01*
X14892500Y-16299214D01*
X14935357Y-16299214D01*
X14963928Y-16313500D01*
X14978214Y-16327786D01*
X14992500Y-16356357D01*
X14992500Y-16442071D01*
X14978214Y-16470643D01*
X14963928Y-16484929D01*
X14935357Y-16499214D01*
X14892500Y-16499214D01*
X15163928Y-16499214D02*
X15135357Y-16484929D01*
X15121071Y-16456357D01*
X15121071Y-16199214D01*
X15392500Y-16484929D02*
X15363928Y-16499214D01*
X15306786Y-16499214D01*
X15278214Y-16484929D01*
X15263928Y-16456357D01*
X15263928Y-16342071D01*
X15278214Y-16313500D01*
X15306786Y-16299214D01*
X15363928Y-16299214D01*
X15392500Y-16313500D01*
X15406786Y-16342071D01*
X15406786Y-16370643D01*
X15263928Y-16399214D01*
X15521071Y-16484929D02*
X15549643Y-16499214D01*
X15606786Y-16499214D01*
X15635357Y-16484929D01*
X15649643Y-16456357D01*
X15649643Y-16442071D01*
X15635357Y-16413500D01*
X15606786Y-16399214D01*
X15563928Y-16399214D01*
X15535357Y-16384929D01*
X15521071Y-16356357D01*
X15521071Y-16342071D01*
X15535357Y-16313500D01*
X15563928Y-16299214D01*
X15606786Y-16299214D01*
X15635357Y-16313500D01*
X15749643Y-16613500D02*
X15763928Y-16599214D01*
X15792500Y-16556357D01*
X15806786Y-16527786D01*
X15821071Y-16484929D01*
X15835357Y-16413500D01*
X15835357Y-16356357D01*
X15821071Y-16284929D01*
X15806786Y-16242071D01*
X15792500Y-16213500D01*
X15763928Y-16170643D01*
X15749643Y-16156357D01*
X8942500Y-16709500D02*
X8942500Y-16809500D01*
X8892500Y-16759500D02*
X8992500Y-16759500D01*
X9421071Y-16895214D02*
X9249643Y-16895214D01*
X9335357Y-16895214D02*
X9335357Y-16595214D01*
X9306786Y-16638071D01*
X9278214Y-16666643D01*
X9249643Y-16680929D01*
X9549643Y-16866643D02*
X9563929Y-16880929D01*
X9549643Y-16895214D01*
X9535357Y-16880929D01*
X9549643Y-16866643D01*
X9549643Y-16895214D01*
X9749643Y-16595214D02*
X9778214Y-16595214D01*
X9806786Y-16609500D01*
X9821071Y-16623786D01*
X9835357Y-16652357D01*
X9849643Y-16709500D01*
X9849643Y-16780929D01*
X9835357Y-16838072D01*
X9821071Y-16866643D01*
X9806786Y-16880929D01*
X9778214Y-16895214D01*
X9749643Y-16895214D01*
X9721071Y-16880929D01*
X9706786Y-16866643D01*
X9692500Y-16838072D01*
X9678214Y-16780929D01*
X9678214Y-16709500D01*
X9692500Y-16652357D01*
X9706786Y-16623786D01*
X9721071Y-16609500D01*
X9749643Y-16595214D01*
X10035357Y-16595214D02*
X10063929Y-16595214D01*
X10092500Y-16609500D01*
X10106786Y-16623786D01*
X10121071Y-16652357D01*
X10135357Y-16709500D01*
X10135357Y-16780929D01*
X10121071Y-16838072D01*
X10106786Y-16866643D01*
X10092500Y-16880929D01*
X10063929Y-16895214D01*
X10035357Y-16895214D01*
X10006786Y-16880929D01*
X9992500Y-16866643D01*
X9978214Y-16838072D01*
X9963929Y-16780929D01*
X9963929Y-16709500D01*
X9978214Y-16652357D01*
X9992500Y-16623786D01*
X10006786Y-16609500D01*
X10035357Y-16595214D01*
X10263929Y-16895214D02*
X10263929Y-16695214D01*
X10263929Y-16723786D02*
X10278214Y-16709500D01*
X10306786Y-16695214D01*
X10349643Y-16695214D01*
X10378214Y-16709500D01*
X10392500Y-16738071D01*
X10392500Y-16895214D01*
X10392500Y-16738071D02*
X10406786Y-16709500D01*
X10435357Y-16695214D01*
X10478214Y-16695214D01*
X10506786Y-16709500D01*
X10521071Y-16738071D01*
X10521071Y-16895214D01*
X10663929Y-16895214D02*
X10663929Y-16695214D01*
X10663929Y-16723786D02*
X10678214Y-16709500D01*
X10706786Y-16695214D01*
X10749643Y-16695214D01*
X10778214Y-16709500D01*
X10792500Y-16738071D01*
X10792500Y-16895214D01*
X10792500Y-16738071D02*
X10806786Y-16709500D01*
X10835357Y-16695214D01*
X10878214Y-16695214D01*
X10906786Y-16709500D01*
X10921071Y-16738071D01*
X10921071Y-16895214D01*
X11506786Y-16580929D02*
X11249643Y-16966643D01*
X11892500Y-16595214D02*
X11921071Y-16595214D01*
X11949643Y-16609500D01*
X11963928Y-16623786D01*
X11978214Y-16652357D01*
X11992500Y-16709500D01*
X11992500Y-16780929D01*
X11978214Y-16838072D01*
X11963928Y-16866643D01*
X11949643Y-16880929D01*
X11921071Y-16895214D01*
X11892500Y-16895214D01*
X11863928Y-16880929D01*
X11849643Y-16866643D01*
X11835357Y-16838072D01*
X11821071Y-16780929D01*
X11821071Y-16709500D01*
X11835357Y-16652357D01*
X11849643Y-16623786D01*
X11863928Y-16609500D01*
X11892500Y-16595214D01*
X12121071Y-16866643D02*
X12135357Y-16880929D01*
X12121071Y-16895214D01*
X12106786Y-16880929D01*
X12121071Y-16866643D01*
X12121071Y-16895214D01*
X12321071Y-16595214D02*
X12349643Y-16595214D01*
X12378214Y-16609500D01*
X12392500Y-16623786D01*
X12406785Y-16652357D01*
X12421071Y-16709500D01*
X12421071Y-16780929D01*
X12406785Y-16838072D01*
X12392500Y-16866643D01*
X12378214Y-16880929D01*
X12349643Y-16895214D01*
X12321071Y-16895214D01*
X12292500Y-16880929D01*
X12278214Y-16866643D01*
X12263928Y-16838072D01*
X12249643Y-16780929D01*
X12249643Y-16709500D01*
X12263928Y-16652357D01*
X12278214Y-16623786D01*
X12292500Y-16609500D01*
X12321071Y-16595214D01*
X12521071Y-16595214D02*
X12706785Y-16595214D01*
X12606785Y-16709500D01*
X12649643Y-16709500D01*
X12678214Y-16723786D01*
X12692500Y-16738071D01*
X12706785Y-16766643D01*
X12706785Y-16838072D01*
X12692500Y-16866643D01*
X12678214Y-16880929D01*
X12649643Y-16895214D01*
X12563928Y-16895214D01*
X12535357Y-16880929D01*
X12521071Y-16866643D01*
X12849643Y-16895214D02*
X12906785Y-16895214D01*
X12935357Y-16880929D01*
X12949643Y-16866643D01*
X12978214Y-16823786D01*
X12992500Y-16766643D01*
X12992500Y-16652357D01*
X12978214Y-16623786D01*
X12963928Y-16609500D01*
X12935357Y-16595214D01*
X12878214Y-16595214D01*
X12849643Y-16609500D01*
X12835357Y-16623786D01*
X12821071Y-16652357D01*
X12821071Y-16723786D01*
X12835357Y-16752357D01*
X12849643Y-16766643D01*
X12878214Y-16780929D01*
X12935357Y-16780929D01*
X12963928Y-16766643D01*
X12978214Y-16752357D01*
X12992500Y-16723786D01*
X13106786Y-16595214D02*
X13106786Y-16652357D01*
X13221071Y-16595214D02*
X13221071Y-16652357D01*
X13663928Y-17009500D02*
X13649643Y-16995214D01*
X13621071Y-16952357D01*
X13606785Y-16923786D01*
X13592500Y-16880929D01*
X13578214Y-16809500D01*
X13578214Y-16752357D01*
X13592500Y-16680929D01*
X13606785Y-16638071D01*
X13621071Y-16609500D01*
X13649643Y-16566643D01*
X13663928Y-16552357D01*
X13906785Y-16695214D02*
X13906785Y-16895214D01*
X13835357Y-16580929D02*
X13763928Y-16795214D01*
X13949643Y-16795214D01*
X14292500Y-16895214D02*
X14292500Y-16595214D01*
X14421071Y-16895214D02*
X14421071Y-16738071D01*
X14406785Y-16709500D01*
X14378214Y-16695214D01*
X14335357Y-16695214D01*
X14306785Y-16709500D01*
X14292500Y-16723786D01*
X14606785Y-16895214D02*
X14578214Y-16880929D01*
X14563928Y-16866643D01*
X14549643Y-16838072D01*
X14549643Y-16752357D01*
X14563928Y-16723786D01*
X14578214Y-16709500D01*
X14606785Y-16695214D01*
X14649643Y-16695214D01*
X14678214Y-16709500D01*
X14692500Y-16723786D01*
X14706785Y-16752357D01*
X14706785Y-16838072D01*
X14692500Y-16866643D01*
X14678214Y-16880929D01*
X14649643Y-16895214D01*
X14606785Y-16895214D01*
X14878214Y-16895214D02*
X14849643Y-16880929D01*
X14835357Y-16852357D01*
X14835357Y-16595214D01*
X15106786Y-16880929D02*
X15078214Y-16895214D01*
X15021071Y-16895214D01*
X14992500Y-16880929D01*
X14978214Y-16852357D01*
X14978214Y-16738071D01*
X14992500Y-16709500D01*
X15021071Y-16695214D01*
X15078214Y-16695214D01*
X15106786Y-16709500D01*
X15121071Y-16738071D01*
X15121071Y-16766643D01*
X14978214Y-16795214D01*
X15235357Y-16880929D02*
X15263928Y-16895214D01*
X15321071Y-16895214D01*
X15349643Y-16880929D01*
X15363928Y-16852357D01*
X15363928Y-16838072D01*
X15349643Y-16809500D01*
X15321071Y-16795214D01*
X15278214Y-16795214D01*
X15249643Y-16780929D01*
X15235357Y-16752357D01*
X15235357Y-16738071D01*
X15249643Y-16709500D01*
X15278214Y-16695214D01*
X15321071Y-16695214D01*
X15349643Y-16709500D01*
X15463928Y-17009500D02*
X15478214Y-16995214D01*
X15506786Y-16952357D01*
X15521071Y-16923786D01*
X15535357Y-16880929D01*
X15549643Y-16809500D01*
X15549643Y-16752357D01*
X15535357Y-16680929D01*
X15521071Y-16638071D01*
X15506786Y-16609500D01*
X15478214Y-16566643D01*
X15463928Y-16552357D01*
M02*
