M48
;DRILL file {KiCad 4.0.7} date 02/22/18 17:44:08
;FORMAT={-:-/ absolute / inch / decimal}
FMAT,2
INCH,TZ
T1C0.028
T2C0.031
T3C0.035
T4C0.039
T5C0.040
T6C0.051
T7C0.120
%
G90
G05
M72
T1
X1.7Y-3.
X1.7Y-3.1
X2.Y-3.
X2.Y-3.1
X2.2Y-4.35
X2.2Y-4.65
X3.Y-2.475
X3.Y-2.775
X3.15Y-2.475
X3.15Y-2.775
X3.4Y-5.125
X3.4Y-5.425
X3.425Y-3.8
X3.425Y-4.1
X3.625Y-6.75
X3.925Y-6.75
X4.1Y-3.8
X4.1Y-4.1
X4.35Y-6.4
X4.35Y-6.7
T2
X1.4516Y-2.4
X1.55Y-2.4
X1.65Y-2.0516
X1.65Y-2.15
X1.7Y-2.55
X1.7Y-2.65
X1.7Y-2.75
X1.7Y-2.85
X1.8Y-5.25
X1.8Y-5.55
X1.9Y-5.25
X1.9Y-5.55
X2.Y-2.55
X2.Y-2.65
X2.Y-2.75
X2.Y-2.85
X2.Y-5.25
X2.Y-5.55
X2.1Y-5.25
X2.1Y-5.55
X2.2Y-5.25
X2.2Y-5.55
X2.3Y-5.25
X2.3Y-5.55
X2.4Y-2.0266
X2.4Y-2.125
X2.4Y-5.25
X2.4Y-5.55
X2.775Y-4.7016
X2.775Y-4.8
X2.825Y-3.4516
X2.825Y-3.55
X2.85Y-2.0266
X2.85Y-2.125
X2.85Y-2.5766
X2.85Y-2.675
X2.85Y-6.0516
X2.85Y-6.15
X2.975Y-4.6
X2.975Y-4.9
X3.Y-3.275
X3.Y-3.575
X3.025Y-5.95
X3.025Y-6.25
X3.05Y-1.925
X3.05Y-2.225
X3.075Y-4.6
X3.075Y-4.9
X3.1Y-3.275
X3.1Y-3.575
X3.125Y-5.95
X3.125Y-6.25
X3.15Y-1.925
X3.15Y-2.225
X3.175Y-4.6
X3.175Y-4.9
X3.2Y-3.275
X3.2Y-3.575
X3.225Y-5.95
X3.225Y-6.25
X3.25Y-1.925
X3.25Y-2.225
X3.275Y-4.6
X3.275Y-4.9
X3.3Y-2.475
X3.3Y-2.775
X3.3Y-3.275
X3.3Y-3.575
X3.325Y-5.95
X3.325Y-6.25
X3.35Y-1.925
X3.35Y-2.225
X3.375Y-4.6
X3.375Y-4.9
X3.4Y-3.275
X3.4Y-3.575
X3.425Y-5.95
X3.425Y-6.25
X3.45Y-1.925
X3.45Y-2.225
X3.45Y-2.475
X3.45Y-2.775
X3.475Y-4.6
X3.475Y-4.9
X3.5Y-3.275
X3.5Y-3.575
X3.525Y-5.95
X3.525Y-6.25
X3.55Y-1.925
X3.55Y-2.225
X3.575Y-4.6
X3.575Y-4.9
X3.575Y-5.125
X3.575Y-5.425
X3.6Y-3.275
X3.6Y-3.575
X3.6Y-3.8
X3.6Y-4.1
X3.625Y-5.95
X3.625Y-6.25
X3.625Y-6.45
X3.625Y-6.6
X3.65Y-1.925
X3.65Y-2.225
X3.675Y-4.6
X3.675Y-4.9
X3.7Y-3.275
X3.7Y-3.575
X3.725Y-5.95
X3.725Y-6.25
X3.75Y-1.925
X3.75Y-2.225
X3.75Y-5.125
X3.75Y-5.425
X3.775Y-3.8
X3.775Y-4.1
X3.925Y-6.45
X3.925Y-6.6
T3
X1.425Y-4.35
X1.425Y-4.45
T4
X1.378Y-1.5748
X1.378Y-6.6929
X1.4Y-2.05
X1.4Y-2.15
X1.425Y-4.675
X1.425Y-4.775
X1.55Y-2.55
X1.75Y-3.45
X1.8Y-5.1
X1.8Y-5.7
X1.85Y-2.4
X1.85Y-3.25
X1.95Y-2.0031
X1.95Y-2.2
X2.1Y-5.7
X2.35Y-2.375
X2.35Y-2.6
X2.35Y-2.7969
X2.35Y-3.05
X2.525Y-5.
X2.775Y-5.
X2.825Y-3.675
X2.825Y-3.875
X2.85Y-2.225
X2.85Y-5.95
X2.85Y-6.25
X3.Y-3.05
X3.525Y-6.45
X3.55Y-2.375
X3.55Y-2.775
X3.825Y-3.575
X3.85Y-2.225
X3.85Y-4.9
X3.85Y-6.25
X3.875Y-5.175
X3.875Y-5.3
X3.875Y-5.425
X3.925Y-1.925
X3.925Y-3.8
X4.Y-3.25
X4.075Y-6.6
X4.1Y-4.625
X4.2Y-6.45
X4.275Y-2.375
X4.275Y-3.8
X4.275Y-4.9
X4.3307Y-1.9685
X5.1181Y-6.6929
T5
X4.65Y-2.175
X4.65Y-2.2848
X4.65Y-2.39
X4.65Y-2.5002
X4.65Y-2.61
X4.65Y-2.7199
X4.65Y-2.825
X4.65Y-2.9348
X4.65Y-3.0451
X4.65Y-3.1549
X4.65Y-3.26
X4.65Y-3.3699
X4.65Y-3.4801
X4.65Y-4.75
X4.65Y-4.8598
X4.65Y-4.965
X4.65Y-5.0752
X4.65Y-5.185
X4.65Y-5.2949
X4.65Y-5.4
X4.65Y-5.5098
X4.65Y-5.6201
X4.65Y-5.7299
X4.65Y-5.835
X4.65Y-5.9449
X4.65Y-6.0551
X4.75Y-2.2368
X4.75Y-2.3368
X4.75Y-2.447
X4.75Y-2.5549
X4.75Y-2.6632
X4.75Y-2.773
X4.75Y-2.8809
X4.75Y-2.9892
X4.75Y-3.101
X4.75Y-3.2069
X4.75Y-3.3152
X4.75Y-3.425
X4.75Y-4.8118
X4.75Y-4.9118
X4.75Y-5.022
X4.75Y-5.1299
X4.75Y-5.2382
X4.75Y-5.348
X4.75Y-5.4559
X4.75Y-5.5642
X4.75Y-5.676
X4.75Y-5.7819
X4.75Y-5.8902
X4.75Y-6.
T6
X1.35Y-3.25
X1.35Y-3.4469
X1.35Y-3.6437
T7
X4.75Y-1.9002
X4.75Y-3.7502
X4.75Y-4.4752
X4.75Y-6.3252
T0
M30
