G04 #@! TF.FileFunction,Copper,L2,Bot,Signal*
%FSLAX46Y46*%
G04 Gerber Fmt 4.6, Leading zero omitted, Abs format (unit mm)*
G04 Created by KiCad (PCBNEW 4.0.7) date 03/07/18 18:15:04*
%MOMM*%
%LPD*%
G01*
G04 APERTURE LIST*
%ADD10C,0.100000*%
%ADD11C,3.810000*%
%ADD12R,1.520000X1.520000*%
%ADD13C,1.520000*%
%ADD14R,1.600000X2.400000*%
%ADD15O,1.600000X2.400000*%
%ADD16C,1.600000*%
%ADD17R,2.000000X2.000000*%
%ADD18C,2.000000*%
%ADD19R,1.800000X1.800000*%
%ADD20C,1.800000*%
%ADD21R,1.600000X1.600000*%
%ADD22O,1.600000X1.600000*%
%ADD23O,3.010000X1.510000*%
%ADD24C,1.400000*%
%ADD25O,1.400000X1.400000*%
%ADD26C,2.340000*%
%ADD27R,2.400000X1.600000*%
%ADD28O,2.400000X1.600000*%
%ADD29C,3.000000*%
%ADD30C,1.000000*%
G04 APERTURE END LIST*
D10*
D11*
X120650000Y-95255000D03*
X120650000Y-48265000D03*
D12*
X118110000Y-55245000D03*
D13*
X118110000Y-58035000D03*
X118110000Y-60705000D03*
X118110000Y-63505000D03*
X118110000Y-66295000D03*
X118110000Y-69085000D03*
X118110000Y-71755000D03*
X118110000Y-74545000D03*
X118110000Y-77345000D03*
X118110000Y-80135000D03*
X118110000Y-82805000D03*
X118110000Y-85595000D03*
X118110000Y-88395000D03*
X120650000Y-56815000D03*
X120650000Y-59355000D03*
X120650000Y-62155000D03*
X120650000Y-64895000D03*
X120650000Y-67645000D03*
X120650000Y-70435000D03*
X120650000Y-73175000D03*
X120650000Y-75925000D03*
X120650000Y-78765000D03*
X120650000Y-81455000D03*
X120650000Y-84205000D03*
X120650000Y-86995000D03*
D14*
X60960000Y-133350000D03*
D15*
X45720000Y-140970000D03*
X58420000Y-133350000D03*
X48260000Y-140970000D03*
X55880000Y-133350000D03*
X50800000Y-140970000D03*
X53340000Y-133350000D03*
X53340000Y-140970000D03*
X50800000Y-133350000D03*
X55880000Y-140970000D03*
X48260000Y-133350000D03*
X58420000Y-140970000D03*
X45720000Y-133350000D03*
X60960000Y-140970000D03*
D16*
X39370000Y-60960000D03*
X36870000Y-60960000D03*
X41910000Y-54610000D03*
X41910000Y-52110000D03*
D17*
X49530000Y-55880000D03*
D18*
X49530000Y-50880000D03*
D17*
X59690000Y-66040000D03*
D18*
X59690000Y-71040000D03*
D16*
X72390000Y-67945000D03*
X72390000Y-65445000D03*
X60960000Y-53975000D03*
X60960000Y-51475000D03*
X72390000Y-53975000D03*
X72390000Y-51475000D03*
X71755000Y-90170000D03*
X71755000Y-87670000D03*
X70485000Y-121920000D03*
X70485000Y-119420000D03*
X72390000Y-156210000D03*
X72390000Y-153710000D03*
D19*
X36195000Y-113030000D03*
D20*
X36195000Y-110490000D03*
D21*
X83820000Y-62865000D03*
D22*
X83820000Y-70485000D03*
D21*
X87630000Y-62865000D03*
D22*
X87630000Y-70485000D03*
D21*
X95885000Y-96520000D03*
D22*
X95885000Y-104140000D03*
D21*
X91440000Y-96520000D03*
D22*
X91440000Y-104140000D03*
D21*
X90805000Y-130175000D03*
D22*
X90805000Y-137795000D03*
D21*
X95250000Y-130175000D03*
D22*
X95250000Y-137795000D03*
D21*
X92075000Y-163830000D03*
D22*
X99695000Y-163830000D03*
D21*
X92075000Y-167640000D03*
D22*
X99695000Y-167640000D03*
D23*
X35560000Y-54610000D03*
X35560000Y-52070000D03*
X36195000Y-121285000D03*
X36195000Y-118745000D03*
D11*
X120650000Y-160660000D03*
X120650000Y-113670000D03*
D12*
X118110000Y-120650000D03*
D13*
X118110000Y-123440000D03*
X118110000Y-126110000D03*
X118110000Y-128910000D03*
X118110000Y-131700000D03*
X118110000Y-134490000D03*
X118110000Y-137160000D03*
X118110000Y-139950000D03*
X118110000Y-142750000D03*
X118110000Y-145540000D03*
X118110000Y-148210000D03*
X118110000Y-151000000D03*
X118110000Y-153800000D03*
X120650000Y-122220000D03*
X120650000Y-124760000D03*
X120650000Y-127560000D03*
X120650000Y-130300000D03*
X120650000Y-133050000D03*
X120650000Y-135840000D03*
X120650000Y-138580000D03*
X120650000Y-141330000D03*
X120650000Y-144170000D03*
X120650000Y-146860000D03*
X120650000Y-149610000D03*
X120650000Y-152400000D03*
D24*
X43180000Y-76200000D03*
D25*
X50800000Y-76200000D03*
D24*
X55880000Y-118110000D03*
D25*
X55880000Y-110490000D03*
D24*
X50800000Y-78740000D03*
D25*
X43180000Y-78740000D03*
D24*
X76200000Y-62865000D03*
D25*
X76200000Y-70485000D03*
D24*
X80010000Y-70485000D03*
D25*
X80010000Y-62865000D03*
D24*
X86995000Y-96520000D03*
D25*
X86995000Y-104140000D03*
D24*
X86360000Y-130175000D03*
D25*
X86360000Y-137795000D03*
D24*
X92075000Y-171450000D03*
D25*
X99695000Y-171450000D03*
D24*
X104140000Y-104140000D03*
D25*
X104140000Y-96520000D03*
D24*
X110490000Y-170180000D03*
D25*
X110490000Y-162560000D03*
D26*
X34290000Y-92550000D03*
X34290000Y-87550000D03*
X34290000Y-82550000D03*
D27*
X50800000Y-72390000D03*
D28*
X43180000Y-64770000D03*
X50800000Y-69850000D03*
X43180000Y-67310000D03*
X50800000Y-67310000D03*
X43180000Y-69850000D03*
X50800000Y-64770000D03*
X43180000Y-72390000D03*
D14*
X95250000Y-48895000D03*
D15*
X77470000Y-56515000D03*
X92710000Y-48895000D03*
X80010000Y-56515000D03*
X90170000Y-48895000D03*
X82550000Y-56515000D03*
X87630000Y-48895000D03*
X85090000Y-56515000D03*
X85090000Y-48895000D03*
X87630000Y-56515000D03*
X82550000Y-48895000D03*
X90170000Y-56515000D03*
X80010000Y-48895000D03*
X92710000Y-56515000D03*
X77470000Y-48895000D03*
X95250000Y-56515000D03*
D14*
X93980000Y-83185000D03*
D15*
X76200000Y-90805000D03*
X91440000Y-83185000D03*
X78740000Y-90805000D03*
X88900000Y-83185000D03*
X81280000Y-90805000D03*
X86360000Y-83185000D03*
X83820000Y-90805000D03*
X83820000Y-83185000D03*
X86360000Y-90805000D03*
X81280000Y-83185000D03*
X88900000Y-90805000D03*
X78740000Y-83185000D03*
X91440000Y-90805000D03*
X76200000Y-83185000D03*
X93980000Y-90805000D03*
D14*
X93345000Y-116840000D03*
D15*
X75565000Y-124460000D03*
X90805000Y-116840000D03*
X78105000Y-124460000D03*
X88265000Y-116840000D03*
X80645000Y-124460000D03*
X85725000Y-116840000D03*
X83185000Y-124460000D03*
X83185000Y-116840000D03*
X85725000Y-124460000D03*
X80645000Y-116840000D03*
X88265000Y-124460000D03*
X78105000Y-116840000D03*
X90805000Y-124460000D03*
X75565000Y-116840000D03*
X93345000Y-124460000D03*
D14*
X94615000Y-151130000D03*
D15*
X76835000Y-158750000D03*
X92075000Y-151130000D03*
X79375000Y-158750000D03*
X89535000Y-151130000D03*
X81915000Y-158750000D03*
X86995000Y-151130000D03*
X84455000Y-158750000D03*
X84455000Y-151130000D03*
X86995000Y-158750000D03*
X81915000Y-151130000D03*
X89535000Y-158750000D03*
X79375000Y-151130000D03*
X92075000Y-158750000D03*
X76835000Y-151130000D03*
X94615000Y-158750000D03*
D29*
X35000000Y-40000000D03*
X35000000Y-170000000D03*
X130000000Y-170000000D03*
X110000000Y-50000000D03*
D18*
X39370000Y-64770000D03*
X44450000Y-87630000D03*
X64135000Y-127000000D03*
X76200000Y-77470000D03*
X59690000Y-77470000D03*
X45720000Y-129540000D03*
X72390000Y-151130000D03*
X97790000Y-158750000D03*
X72390000Y-158750000D03*
X72390000Y-56515000D03*
X97790000Y-56515000D03*
X97155000Y-90805000D03*
X71755000Y-93345000D03*
X70485000Y-127000000D03*
X97790000Y-124460000D03*
X46990000Y-60960000D03*
X46990000Y-82550000D03*
X108585000Y-96520000D03*
X108585000Y-124460000D03*
X98425000Y-134620000D03*
X106680000Y-163830000D03*
X108585000Y-60325000D03*
X98425000Y-131445000D03*
X90170000Y-70485000D03*
X99695000Y-48895000D03*
X99695000Y-96520000D03*
X101600000Y-82550000D03*
X98425000Y-137795000D03*
X104140000Y-117475000D03*
X103505000Y-167640000D03*
X59690000Y-60325000D03*
X90170000Y-60325000D03*
X45720000Y-144780000D03*
X71755000Y-98425000D03*
X89535000Y-163830000D03*
X53340000Y-144780000D03*
D30*
X34290000Y-87550000D02*
X44370000Y-87550000D01*
X44370000Y-87550000D02*
X44450000Y-87630000D01*
X39370000Y-60960000D02*
X39370000Y-64770000D01*
X39370000Y-64770000D02*
X43180000Y-64770000D01*
X99695000Y-171450000D02*
X99695000Y-173355000D01*
X60960000Y-51475000D02*
X60960000Y-46355000D01*
X72390000Y-51475000D02*
X72390000Y-46355000D01*
X95885000Y-173355000D02*
X50800000Y-173355000D01*
X31750000Y-154305000D02*
X50800000Y-173355000D01*
X31750000Y-154305000D02*
X31750000Y-129540000D01*
X45720000Y-129540000D02*
X31750000Y-129540000D01*
X36195000Y-116205000D02*
X31750000Y-116205000D01*
X34290000Y-92550000D02*
X31750000Y-92550000D01*
X31750000Y-92550000D02*
X31750000Y-92710000D01*
X31750000Y-60960000D02*
X31750000Y-92710000D01*
X31750000Y-92710000D02*
X31750000Y-116205000D01*
X31750000Y-116205000D02*
X31750000Y-129540000D01*
X86995000Y-106680000D02*
X102870000Y-106680000D01*
X104140000Y-105410000D02*
X104140000Y-104140000D01*
X102870000Y-106680000D02*
X104140000Y-105410000D01*
X95885000Y-173355000D02*
X99695000Y-173355000D01*
X99695000Y-173355000D02*
X109220000Y-173355000D01*
X110490000Y-172085000D02*
X109220000Y-173355000D01*
X110490000Y-172085000D02*
X110490000Y-170180000D01*
X41910000Y-46355000D02*
X33655000Y-46355000D01*
X31750000Y-48260000D02*
X31750000Y-52070000D01*
X33655000Y-46355000D02*
X31750000Y-48260000D01*
X49530000Y-50880000D02*
X49530000Y-46355000D01*
X41910000Y-52110000D02*
X41910000Y-46355000D01*
X41910000Y-46355000D02*
X49530000Y-46355000D01*
X49530000Y-46355000D02*
X60960000Y-46355000D01*
X60960000Y-46355000D02*
X72390000Y-46355000D01*
X72390000Y-46355000D02*
X76835000Y-46355000D01*
X77470000Y-46990000D02*
X77470000Y-48895000D01*
X76835000Y-46355000D02*
X77470000Y-46990000D01*
X86995000Y-106680000D02*
X83820000Y-106680000D01*
X75565000Y-114935000D02*
X75565000Y-116840000D01*
X83820000Y-106680000D02*
X75565000Y-114935000D01*
X86995000Y-104140000D02*
X86995000Y-106680000D01*
X70485000Y-119420000D02*
X69175000Y-119420000D01*
X64135000Y-124460000D02*
X64135000Y-127000000D01*
X69175000Y-119420000D02*
X64135000Y-124460000D01*
X50800000Y-72390000D02*
X52705000Y-72390000D01*
X53340000Y-73025000D02*
X53340000Y-77470000D01*
X52705000Y-72390000D02*
X53340000Y-73025000D01*
X59690000Y-77470000D02*
X53340000Y-77470000D01*
X52230000Y-92550000D02*
X49530000Y-92550000D01*
X53340000Y-77470000D02*
X53340000Y-91440000D01*
X53340000Y-91440000D02*
X52230000Y-92550000D01*
X80010000Y-62865000D02*
X80010000Y-60960000D01*
X71120000Y-70485000D02*
X76200000Y-70485000D01*
X69790019Y-69155019D02*
X71120000Y-70485000D01*
X69790019Y-64829981D02*
X69790019Y-69155019D01*
X74295000Y-60325000D02*
X69790019Y-64829981D01*
X79375000Y-60325000D02*
X74295000Y-60325000D01*
X80010000Y-60960000D02*
X79375000Y-60325000D01*
X59690000Y-72390000D02*
X59690000Y-77470000D01*
X76200000Y-83185000D02*
X76200000Y-85090000D01*
X73620000Y-87670000D02*
X71755000Y-87670000D01*
X76200000Y-85090000D02*
X73620000Y-87670000D01*
X45720000Y-129540000D02*
X45720000Y-133350000D01*
X70485000Y-119420000D02*
X74295000Y-119420000D01*
X74295000Y-119420000D02*
X75565000Y-118110000D01*
X75565000Y-118110000D02*
X75565000Y-116840000D01*
X72390000Y-153710000D02*
X72390000Y-151130000D01*
X72390000Y-153710000D02*
X76160000Y-153710000D01*
X76835000Y-153035000D02*
X76835000Y-151130000D01*
X76160000Y-153710000D02*
X76835000Y-153035000D01*
X76835000Y-151130000D02*
X76835000Y-149225000D01*
X86360000Y-139700000D02*
X86360000Y-137795000D01*
X76835000Y-149225000D02*
X86360000Y-139700000D01*
X76200000Y-70485000D02*
X76200000Y-77470000D01*
X76200000Y-77470000D02*
X76200000Y-83185000D01*
X36195000Y-113030000D02*
X36195000Y-116205000D01*
X36195000Y-116205000D02*
X36195000Y-118745000D01*
X35560000Y-52070000D02*
X31750000Y-52070000D01*
X31750000Y-52070000D02*
X31750000Y-60960000D01*
X49530000Y-92550000D02*
X44450000Y-92550000D01*
X44450000Y-92550000D02*
X34290000Y-92550000D01*
X59690000Y-72390000D02*
X59690000Y-71040000D01*
X34130000Y-92710000D02*
X34290000Y-92550000D01*
X31750000Y-60960000D02*
X36870000Y-60960000D01*
X41870000Y-52070000D02*
X41910000Y-52110000D01*
X60960000Y-53975000D02*
X60960000Y-56515000D01*
X50800000Y-64770000D02*
X52705000Y-64770000D01*
X55880000Y-61595000D02*
X55880000Y-56515000D01*
X52705000Y-64770000D02*
X55880000Y-61595000D01*
X49530000Y-55880000D02*
X55245000Y-55880000D01*
X55880000Y-56515000D02*
X60960000Y-56515000D01*
X60960000Y-56515000D02*
X72390000Y-56515000D01*
X55245000Y-55880000D02*
X55880000Y-56515000D01*
X94615000Y-158750000D02*
X94615000Y-160655000D01*
X95250000Y-161290000D02*
X94615000Y-160655000D01*
X96520000Y-161290000D02*
X95250000Y-161290000D01*
X97790000Y-160020000D02*
X96520000Y-161290000D01*
X97790000Y-158750000D02*
X97790000Y-160020000D01*
X72390000Y-158750000D02*
X72390000Y-156210000D01*
X97790000Y-56515000D02*
X97790000Y-59055000D01*
X95250000Y-61595000D02*
X97790000Y-59055000D01*
X72390000Y-53975000D02*
X72390000Y-56515000D01*
X72390000Y-65445000D02*
X74335000Y-65445000D01*
X74335000Y-65445000D02*
X74930000Y-66040000D01*
X74930000Y-66040000D02*
X90805000Y-66040000D01*
X90805000Y-66040000D02*
X95250000Y-61595000D01*
X95250000Y-61595000D02*
X95250000Y-56515000D01*
X72390000Y-65445000D02*
X72350000Y-65445000D01*
X93980000Y-92075000D02*
X94615000Y-92710000D01*
X94615000Y-92710000D02*
X96520000Y-92710000D01*
X96520000Y-92710000D02*
X97155000Y-92075000D01*
X97155000Y-92075000D02*
X97155000Y-90805000D01*
X93980000Y-90805000D02*
X93980000Y-92075000D01*
X71755000Y-93345000D02*
X71755000Y-90170000D01*
X93345000Y-124460000D02*
X93345000Y-126365000D01*
X97790000Y-124460000D02*
X97790000Y-125730000D01*
X97790000Y-125730000D02*
X96520000Y-127000000D01*
X96520000Y-127000000D02*
X93980000Y-127000000D01*
X93980000Y-127000000D02*
X93345000Y-126365000D01*
X60960000Y-140970000D02*
X60960000Y-142875000D01*
X70485000Y-142875000D02*
X70485000Y-127000000D01*
X70485000Y-127000000D02*
X70485000Y-121920000D01*
X69215000Y-144145000D02*
X70485000Y-142875000D01*
X62230000Y-144145000D02*
X69215000Y-144145000D01*
X60960000Y-142875000D02*
X62230000Y-144145000D01*
X46990000Y-55880000D02*
X46990000Y-60960000D01*
X46990000Y-82550000D02*
X49530000Y-82550000D01*
X50800000Y-81280000D02*
X50800000Y-78740000D01*
X49530000Y-82550000D02*
X50800000Y-81280000D01*
X34290000Y-82550000D02*
X46990000Y-82550000D01*
X43180000Y-72390000D02*
X36830000Y-72390000D01*
X34290000Y-74930000D02*
X34290000Y-82550000D01*
X36830000Y-72390000D02*
X34290000Y-74930000D01*
X41910000Y-54610000D02*
X44450000Y-54610000D01*
X45720000Y-55880000D02*
X46990000Y-55880000D01*
X46990000Y-55880000D02*
X48260000Y-55880000D01*
X48260000Y-55880000D02*
X49530000Y-55880000D01*
X44450000Y-54610000D02*
X45720000Y-55880000D01*
X35560000Y-54610000D02*
X41910000Y-54610000D01*
X48260000Y-69850000D02*
X48260000Y-74930000D01*
X49530000Y-76200000D02*
X50800000Y-76200000D01*
X48260000Y-74930000D02*
X49530000Y-76200000D01*
X50800000Y-69850000D02*
X52705000Y-69850000D01*
X56515000Y-66040000D02*
X59690000Y-66040000D01*
X52705000Y-69850000D02*
X56515000Y-66040000D01*
X43180000Y-67310000D02*
X45720000Y-67310000D01*
X48260000Y-69850000D02*
X50800000Y-69850000D01*
X45720000Y-67310000D02*
X48260000Y-69850000D01*
X95885000Y-104140000D02*
X100965000Y-104140000D01*
X100965000Y-104140000D02*
X108585000Y-96520000D01*
X108585000Y-124460000D02*
X98425000Y-134620000D01*
X90805000Y-136525000D02*
X90805000Y-137795000D01*
X90805000Y-136525000D02*
X92710000Y-134620000D01*
X92710000Y-134620000D02*
X98425000Y-134620000D01*
X106680000Y-163830000D02*
X99695000Y-163830000D01*
X99060000Y-60325000D02*
X108585000Y-60325000D01*
X91440000Y-67945000D02*
X83820000Y-67945000D01*
X91440000Y-67945000D02*
X99060000Y-60325000D01*
X83820000Y-67945000D02*
X83820000Y-70485000D01*
X80010000Y-67945000D02*
X80010000Y-70485000D01*
X72390000Y-67945000D02*
X80010000Y-67945000D01*
X80010000Y-67945000D02*
X83820000Y-67945000D01*
X36195000Y-110490000D02*
X55880000Y-110490000D01*
X83820000Y-62865000D02*
X83820000Y-64770000D01*
X87630000Y-62865000D02*
X87630000Y-64770000D01*
X76200000Y-62865000D02*
X76200000Y-64135000D01*
X92710000Y-61595000D02*
X92710000Y-56515000D01*
X89535000Y-64770000D02*
X92710000Y-61595000D01*
X76835000Y-64770000D02*
X83820000Y-64770000D01*
X83820000Y-64770000D02*
X87630000Y-64770000D01*
X87630000Y-64770000D02*
X89535000Y-64770000D01*
X76200000Y-64135000D02*
X76835000Y-64770000D01*
X86995000Y-158750000D02*
X86995000Y-160655000D01*
X86360000Y-161290000D02*
X81915000Y-161290000D01*
X86995000Y-160655000D02*
X86360000Y-161290000D01*
X98425000Y-131445000D02*
X97155000Y-132715000D01*
X87630000Y-70485000D02*
X90170000Y-70485000D01*
X84385002Y-132715000D02*
X83150001Y-133950001D01*
X97155000Y-132715000D02*
X84385002Y-132715000D01*
X83150001Y-133950001D02*
X83150001Y-140797059D01*
X83150001Y-140797059D02*
X75357060Y-148590000D01*
X70485000Y-148590000D02*
X75357060Y-148590000D01*
X70485000Y-161290000D02*
X69215000Y-160020000D01*
X69215000Y-160020000D02*
X69215000Y-149860000D01*
X69215000Y-149860000D02*
X70485000Y-148590000D01*
X70485000Y-161290000D02*
X81915000Y-161290000D01*
X83150001Y-133950001D02*
X83115002Y-133985000D01*
X83185000Y-133985000D02*
X83150001Y-134019999D01*
X81915000Y-161290000D02*
X81915000Y-158750000D01*
X91440000Y-90805000D02*
X91440000Y-96520000D01*
X91440000Y-96520000D02*
X86995000Y-96520000D01*
X95885000Y-96520000D02*
X91440000Y-96520000D01*
X90170000Y-50800000D02*
X90805000Y-51435000D01*
X90805000Y-51435000D02*
X97155000Y-51435000D01*
X97155000Y-51435000D02*
X99695000Y-48895000D01*
X90170000Y-48895000D02*
X90170000Y-50800000D01*
X91440000Y-100965000D02*
X91440000Y-104140000D01*
X92710000Y-99695000D02*
X91440000Y-100965000D01*
X99060000Y-99695000D02*
X92710000Y-99695000D01*
X99695000Y-99060000D02*
X99060000Y-99695000D01*
X99695000Y-96520000D02*
X99695000Y-99060000D01*
X90805000Y-124460000D02*
X90805000Y-130175000D01*
X86360000Y-130175000D02*
X90805000Y-130175000D01*
X90805000Y-130175000D02*
X95250000Y-130175000D01*
X89535000Y-85725000D02*
X88900000Y-85090000D01*
X88900000Y-83185000D02*
X88900000Y-85090000D01*
X99060000Y-82550000D02*
X101600000Y-82550000D01*
X95885000Y-85725000D02*
X99060000Y-82550000D01*
X95885000Y-85725000D02*
X89535000Y-85725000D01*
X98425000Y-137795000D02*
X95250000Y-137795000D01*
X92075000Y-167640000D02*
X92075000Y-171450000D01*
X92075000Y-163830000D02*
X92075000Y-167640000D01*
X92075000Y-158750000D02*
X92075000Y-163830000D01*
X99695000Y-167640000D02*
X103505000Y-167640000D01*
X88265000Y-118745000D02*
X88900000Y-119380000D01*
X88900000Y-119380000D02*
X102235000Y-119380000D01*
X102235000Y-119380000D02*
X104140000Y-117475000D01*
X88265000Y-118745000D02*
X88265000Y-116840000D01*
X48260000Y-133350000D02*
X48260000Y-125095000D01*
X48260000Y-125095000D02*
X44450000Y-121285000D01*
X67310000Y-102870000D02*
X57150000Y-113030000D01*
X44450000Y-121285000D02*
X52705000Y-113030000D01*
X52705000Y-113030000D02*
X57150000Y-113030000D01*
X63500000Y-60325000D02*
X67310000Y-64135000D01*
X67310000Y-64135000D02*
X67310000Y-102870000D01*
X59690000Y-60325000D02*
X63500000Y-60325000D01*
X44450000Y-121285000D02*
X43815000Y-121285000D01*
X36195000Y-121285000D02*
X43815000Y-121285000D01*
X50800000Y-67310000D02*
X52705000Y-67310000D01*
X52705000Y-67310000D02*
X59690000Y-60325000D01*
X90170000Y-60325000D02*
X90170000Y-56515000D01*
X48260000Y-137160000D02*
X58420000Y-137160000D01*
X60960000Y-133350000D02*
X60960000Y-130810000D01*
X58420000Y-130810000D02*
X58420000Y-133350000D01*
X60960000Y-130810000D02*
X58420000Y-130810000D01*
X48260000Y-140970000D02*
X48260000Y-137160000D01*
X48260000Y-137160000D02*
X48260000Y-133350000D01*
X58420000Y-135890000D02*
X58420000Y-137160000D01*
X58420000Y-135890000D02*
X58420000Y-133350000D01*
X58420000Y-137160000D02*
X58420000Y-140970000D01*
X104140000Y-52705000D02*
X106680000Y-55245000D01*
X77470000Y-56515000D02*
X77470000Y-53975000D01*
X78740000Y-52705000D02*
X104140000Y-52705000D01*
X77470000Y-53975000D02*
X78740000Y-52705000D01*
X106680000Y-55245000D02*
X118110000Y-55245000D01*
X118110000Y-58035000D02*
X107565000Y-58035000D01*
X80010000Y-54610000D02*
X80010000Y-56515000D01*
X80645000Y-53975000D02*
X98425000Y-53975000D01*
X80010000Y-54610000D02*
X80645000Y-53975000D01*
X98425000Y-53975000D02*
X103505000Y-53975000D01*
X107565000Y-58035000D02*
X103505000Y-53975000D01*
X118110000Y-60705000D02*
X115190000Y-60705000D01*
X112395000Y-61595000D02*
X114300000Y-61595000D01*
X78740000Y-80645000D02*
X78740000Y-83185000D01*
X85725000Y-73660000D02*
X96520000Y-73660000D01*
X78740000Y-80645000D02*
X85725000Y-73660000D01*
X96520000Y-73660000D02*
X100330000Y-73660000D01*
X100330000Y-73660000D02*
X112395000Y-61595000D01*
X115190000Y-60705000D02*
X114300000Y-61595000D01*
X81280000Y-83185000D02*
X81280000Y-80645000D01*
X100895002Y-74930000D02*
X112320002Y-63505000D01*
X112320002Y-63505000D02*
X118110000Y-63505000D01*
X86995000Y-74930000D02*
X96520000Y-74930000D01*
X81280000Y-80645000D02*
X86995000Y-74930000D01*
X96520000Y-74930000D02*
X100895002Y-74930000D01*
X83820000Y-83185000D02*
X83820000Y-80645000D01*
X101600000Y-76200000D02*
X111505000Y-66295000D01*
X111505000Y-66295000D02*
X118110000Y-66295000D01*
X88265000Y-76200000D02*
X96520000Y-76200000D01*
X83820000Y-80645000D02*
X88265000Y-76200000D01*
X96520000Y-76200000D02*
X101600000Y-76200000D01*
X86360000Y-83185000D02*
X86360000Y-80645000D01*
X102235000Y-77470000D02*
X110620000Y-69085000D01*
X110620000Y-69085000D02*
X118110000Y-69085000D01*
X89535000Y-77470000D02*
X96520000Y-77470000D01*
X86360000Y-80645000D02*
X89535000Y-77470000D01*
X96520000Y-77470000D02*
X102235000Y-77470000D01*
X102870000Y-78740000D02*
X93345000Y-78740000D01*
X118110000Y-71755000D02*
X109855000Y-71755000D01*
X102870000Y-78740000D02*
X109855000Y-71755000D01*
X91440000Y-80645000D02*
X91440000Y-83185000D01*
X93345000Y-78740000D02*
X91440000Y-80645000D01*
X103505000Y-80010000D02*
X94615000Y-80010000D01*
X118110000Y-74545000D02*
X108970000Y-74545000D01*
X103505000Y-80010000D02*
X108970000Y-74545000D01*
X93980000Y-80645000D02*
X93980000Y-83185000D01*
X94615000Y-80010000D02*
X93980000Y-80645000D01*
X118110000Y-80135000D02*
X109095000Y-80135000D01*
X78740000Y-88900000D02*
X79375000Y-88265000D01*
X79375000Y-88265000D02*
X100965000Y-88265000D01*
X78740000Y-88900000D02*
X78740000Y-90805000D01*
X109095000Y-80135000D02*
X100965000Y-88265000D01*
X117985000Y-80010000D02*
X118110000Y-80135000D01*
X116840000Y-43815000D02*
X97790000Y-43815000D01*
X125095000Y-43815000D02*
X116840000Y-43815000D01*
X126365000Y-51435000D02*
X126365000Y-45085000D01*
X120985000Y-56815000D02*
X126365000Y-51435000D01*
X126365000Y-45085000D02*
X125095000Y-43815000D01*
X95250000Y-46355000D02*
X95250000Y-48895000D01*
X97790000Y-43815000D02*
X95250000Y-46355000D01*
X120650000Y-56815000D02*
X120985000Y-56815000D01*
X127635000Y-44450000D02*
X125730000Y-42545000D01*
X121620000Y-59355000D02*
X127635000Y-53340000D01*
X127635000Y-53340000D02*
X127635000Y-45085000D01*
X120650000Y-59355000D02*
X121620000Y-59355000D01*
X127635000Y-45085000D02*
X127635000Y-44450000D01*
X116840000Y-42545000D02*
X96520000Y-42545000D01*
X125730000Y-42545000D02*
X116840000Y-42545000D01*
X92710000Y-46355000D02*
X92710000Y-48895000D01*
X96520000Y-42545000D02*
X92710000Y-46355000D01*
X128835002Y-43884998D02*
X126225004Y-41275000D01*
X120650000Y-62155000D02*
X121845000Y-62155000D01*
X128835002Y-55164998D02*
X128835002Y-45085000D01*
X121845000Y-62155000D02*
X128835002Y-55164998D01*
X128835002Y-45085000D02*
X128835002Y-43884998D01*
X116840000Y-41275000D02*
X92710000Y-41275000D01*
X126225004Y-41275000D02*
X116840000Y-41275000D01*
X87630000Y-46355000D02*
X87630000Y-48895000D01*
X92710000Y-41275000D02*
X87630000Y-46355000D01*
X130035004Y-43040004D02*
X127000000Y-40005000D01*
X120650000Y-64895000D02*
X121795000Y-64895000D01*
X130035004Y-56654996D02*
X130035004Y-45085000D01*
X121795000Y-64895000D02*
X130035004Y-56654996D01*
X130035004Y-45085000D02*
X130035004Y-43040004D01*
X116840000Y-40005000D02*
X91440000Y-40005000D01*
X127000000Y-40005000D02*
X116840000Y-40005000D01*
X85090000Y-46355000D02*
X85090000Y-48895000D01*
X91440000Y-40005000D02*
X85090000Y-46355000D01*
X82550000Y-48895000D02*
X82550000Y-46355000D01*
X127635000Y-38735000D02*
X116840000Y-38735000D01*
X116840000Y-38735000D02*
X90170000Y-38735000D01*
X131445000Y-45085000D02*
X131445000Y-42545000D01*
X121585000Y-67645000D02*
X131445000Y-57785000D01*
X131445000Y-57785000D02*
X131445000Y-45085000D01*
X121585000Y-67645000D02*
X120650000Y-67645000D01*
X131445000Y-42545000D02*
X127635000Y-38735000D01*
X82550000Y-46355000D02*
X90170000Y-38735000D01*
X80010000Y-48895000D02*
X80010000Y-46355000D01*
X128339998Y-37534998D02*
X116840000Y-37534998D01*
X116840000Y-37534998D02*
X88900000Y-37465000D01*
X132715000Y-45085000D02*
X132715000Y-41910000D01*
X121870000Y-70435000D02*
X132715000Y-59590000D01*
X132715000Y-59590000D02*
X132715000Y-45085000D01*
X121870000Y-70435000D02*
X120650000Y-70435000D01*
X132715000Y-41910000D02*
X128339998Y-37534998D01*
X80010000Y-46355000D02*
X88900000Y-37465000D01*
X75565000Y-124460000D02*
X75565000Y-122555000D01*
X77400002Y-120719998D02*
X118040002Y-120719998D01*
X75565000Y-122555000D02*
X77400002Y-120719998D01*
X118040002Y-120719998D02*
X118110000Y-120650000D01*
X118110000Y-123440000D02*
X114550000Y-123440000D01*
X78105000Y-123190000D02*
X79375000Y-121920000D01*
X79375000Y-121920000D02*
X113030000Y-121920000D01*
X78105000Y-123190000D02*
X78105000Y-124460000D01*
X114550000Y-123440000D02*
X113030000Y-121920000D01*
X113030000Y-127000000D02*
X114300000Y-127000000D01*
X114300000Y-127000000D02*
X115190000Y-126110000D01*
X115190000Y-126110000D02*
X118110000Y-126110000D01*
X98425000Y-141605000D02*
X113030000Y-127000000D01*
X79375000Y-148590000D02*
X86360000Y-141605000D01*
X86360000Y-141605000D02*
X98425000Y-141605000D01*
X79375000Y-151130000D02*
X79375000Y-148590000D01*
X111760000Y-130175000D02*
X113665000Y-130175000D01*
X113665000Y-130175000D02*
X114930000Y-128910000D01*
X114930000Y-128910000D02*
X118110000Y-128910000D01*
X99060000Y-142875000D02*
X111760000Y-130175000D01*
X81915000Y-148590000D02*
X87630000Y-142875000D01*
X87630000Y-142875000D02*
X99060000Y-142875000D01*
X81915000Y-151130000D02*
X81915000Y-148590000D01*
X111125000Y-132715000D02*
X99695000Y-144145000D01*
X84455000Y-148590000D02*
X88830002Y-144214998D01*
X84455000Y-151130000D02*
X84455000Y-148590000D01*
X115315000Y-131700000D02*
X118110000Y-131700000D01*
X114300000Y-132715000D02*
X115315000Y-131700000D01*
X111125000Y-132715000D02*
X114300000Y-132715000D01*
X88900000Y-144145000D02*
X88830002Y-144214998D01*
X99695000Y-144145000D02*
X88900000Y-144145000D01*
X118110000Y-134490000D02*
X116335000Y-134490000D01*
X100965000Y-145415000D02*
X110490000Y-135255000D01*
X86995000Y-148590000D02*
X90170000Y-145415000D01*
X90170000Y-145415000D02*
X100965000Y-145415000D01*
X86995000Y-148590000D02*
X86995000Y-151130000D01*
X115570000Y-135255000D02*
X110490000Y-135255000D01*
X116335000Y-134490000D02*
X115570000Y-135255000D01*
X101600000Y-146685000D02*
X110490000Y-137160000D01*
X92075000Y-148590000D02*
X93980000Y-146685000D01*
X93980000Y-146685000D02*
X101600000Y-146685000D01*
X92075000Y-151130000D02*
X92075000Y-148590000D01*
X110490000Y-137160000D02*
X118110000Y-137160000D01*
X118110000Y-139950000D02*
X109855000Y-139950000D01*
X94615000Y-148590000D02*
X95250000Y-147955000D01*
X95250000Y-147955000D02*
X102235000Y-147955000D01*
X94615000Y-148590000D02*
X94615000Y-151130000D01*
X109855000Y-139950000D02*
X102235000Y-147955000D01*
X43180000Y-76200000D02*
X43180000Y-78740000D01*
X43180000Y-69850000D02*
X44450000Y-69850000D01*
X44450000Y-76200000D02*
X43180000Y-76200000D01*
X45720000Y-74930000D02*
X44450000Y-76200000D01*
X45720000Y-71120000D02*
X45720000Y-74930000D01*
X44450000Y-69850000D02*
X45720000Y-71120000D01*
X55880000Y-118110000D02*
X55880000Y-133350000D01*
X45720000Y-140970000D02*
X45720000Y-144780000D01*
X76835000Y-93345000D02*
X71755000Y-98425000D01*
X76835000Y-93345000D02*
X81280000Y-93345000D01*
X86360000Y-90805000D02*
X86360000Y-92710000D01*
X86360000Y-92710000D02*
X85725000Y-93345000D01*
X85725000Y-93345000D02*
X81280000Y-93345000D01*
X81280000Y-93345000D02*
X81280000Y-90805000D01*
X81915000Y-131445000D02*
X85090000Y-128270000D01*
X50800000Y-140970000D02*
X50800000Y-146050000D01*
X52070000Y-147320000D02*
X50800000Y-146050000D01*
X74930000Y-147320000D02*
X52070000Y-147320000D01*
X81915000Y-140335000D02*
X74930000Y-147320000D01*
X81915000Y-131445000D02*
X81915000Y-140335000D01*
X88265000Y-127000000D02*
X88265000Y-124460000D01*
X86995000Y-128270000D02*
X88265000Y-127000000D01*
X85090000Y-128270000D02*
X86995000Y-128270000D01*
X54610000Y-115570000D02*
X58420000Y-115570000D01*
X79375000Y-94615000D02*
X58420000Y-115570000D01*
X88900000Y-90805000D02*
X88900000Y-92075000D01*
X86360000Y-94615000D02*
X83185000Y-94615000D01*
X88900000Y-92075000D02*
X86360000Y-94615000D01*
X53340000Y-116840000D02*
X53340000Y-133350000D01*
X53340000Y-116840000D02*
X54610000Y-115570000D01*
X83185000Y-94615000D02*
X79375000Y-94615000D01*
X89535000Y-158750000D02*
X89535000Y-163830000D01*
X53340000Y-144780000D02*
X53340000Y-140970000D01*
X87630000Y-56515000D02*
X87630000Y-58420000D01*
X86995000Y-59055000D02*
X82550000Y-59055000D01*
X87630000Y-58420000D02*
X86995000Y-59055000D01*
X73660000Y-59055000D02*
X73660000Y-59055000D01*
X68581113Y-64134998D02*
X68649998Y-103435002D01*
X68649998Y-103435002D02*
X57785000Y-114300000D01*
X57785000Y-114300000D02*
X53340000Y-114300000D01*
X53340000Y-114300000D02*
X50800000Y-116840000D01*
X50800000Y-133350000D02*
X50800000Y-116840000D01*
X73660000Y-59055000D02*
X82550000Y-59055000D01*
X73660000Y-59055000D02*
X68581113Y-64134998D01*
X82550000Y-56515000D02*
X82550000Y-59055000D01*
X80645000Y-130810000D02*
X80645000Y-139700000D01*
X80645000Y-139700000D02*
X74295000Y-146050000D01*
X74295000Y-146050000D02*
X57785000Y-146050000D01*
X57785000Y-146050000D02*
X55880000Y-144145000D01*
X55880000Y-144145000D02*
X55880000Y-140970000D01*
X80645000Y-124460000D02*
X80645000Y-130810000D01*
X85725000Y-125730000D02*
X80645000Y-130810000D01*
X85725000Y-125730000D02*
X85725000Y-124460000D01*
X118110000Y-77345000D02*
X109980000Y-77345000D01*
X76200000Y-88265000D02*
X77470000Y-86995000D01*
X76200000Y-88265000D02*
X76200000Y-90805000D01*
X77470000Y-86995000D02*
X100330000Y-86995000D01*
X109980000Y-77345000D02*
X100330000Y-86995000D01*
X112265000Y-88395000D02*
X104140000Y-96520000D01*
X118110000Y-88395000D02*
X112265000Y-88395000D01*
X118110000Y-82805000D02*
X118110000Y-85595000D01*
X118110000Y-85595000D02*
X118110000Y-88395000D01*
X120650000Y-86995000D02*
X120650000Y-87630000D01*
X120650000Y-87630000D02*
X119885000Y-88395000D01*
X119885000Y-88395000D02*
X118110000Y-88395000D01*
X120650000Y-84205000D02*
X120650000Y-86995000D01*
X120650000Y-81455000D02*
X120650000Y-84205000D01*
X120650000Y-78765000D02*
X120650000Y-81455000D01*
X120650000Y-75925000D02*
X120650000Y-78765000D01*
X120650000Y-73175000D02*
X120650000Y-75925000D01*
X100965000Y-154940000D02*
X102235000Y-154940000D01*
X76835000Y-157480000D02*
X79375000Y-154940000D01*
X79375000Y-154940000D02*
X100965000Y-154940000D01*
X76835000Y-158750000D02*
X76835000Y-157480000D01*
X114425000Y-142750000D02*
X118110000Y-142750000D01*
X102235000Y-154940000D02*
X114425000Y-142750000D01*
X102870000Y-156210000D02*
X113665000Y-145415000D01*
X79375000Y-157480000D02*
X80645000Y-156210000D01*
X80645000Y-156210000D02*
X102870000Y-156210000D01*
X79375000Y-158750000D02*
X79375000Y-157480000D01*
X113665000Y-145415000D02*
X117985000Y-145415000D01*
X117985000Y-145415000D02*
X118110000Y-145540000D01*
X113665000Y-153800000D02*
X112265000Y-153800000D01*
X110490000Y-155575000D02*
X110490000Y-162560000D01*
X112265000Y-153800000D02*
X110490000Y-155575000D01*
X118110000Y-153800000D02*
X113665000Y-153800000D01*
X113665000Y-153800000D02*
X113535000Y-153800000D01*
X118110000Y-153800000D02*
X119250000Y-153800000D01*
X119250000Y-153800000D02*
X120650000Y-152400000D01*
X118110000Y-148210000D02*
X118110000Y-151000000D01*
X118110000Y-151000000D02*
X118110000Y-153800000D01*
X120650000Y-149610000D02*
X120650000Y-152400000D01*
X120650000Y-146860000D02*
X120650000Y-149610000D01*
X120650000Y-144170000D02*
X120650000Y-146860000D01*
X120650000Y-141330000D02*
X120650000Y-144170000D01*
X120650000Y-138580000D02*
X120650000Y-141330000D01*
X93345000Y-116840000D02*
X93345000Y-114935000D01*
X124934996Y-122220000D02*
X126504996Y-120650000D01*
X126504996Y-120650000D02*
X126504996Y-110629996D01*
X126504996Y-110629996D02*
X125095000Y-109220000D01*
X124934996Y-122220000D02*
X120650000Y-122220000D01*
X113665000Y-109220000D02*
X125095000Y-109220000D01*
X108585000Y-114300000D02*
X113665000Y-109220000D01*
X93980000Y-114300000D02*
X108585000Y-114300000D01*
X93345000Y-114935000D02*
X93980000Y-114300000D01*
X92710000Y-113030000D02*
X107950000Y-113030000D01*
X90805000Y-114935000D02*
X92710000Y-113030000D01*
X107950000Y-113030000D02*
X113030000Y-107950000D01*
X127704998Y-109855000D02*
X127635000Y-109855000D01*
X124160000Y-124760000D02*
X127704998Y-121215002D01*
X127704998Y-121215002D02*
X127704998Y-109855000D01*
X120650000Y-124760000D02*
X124160000Y-124760000D01*
X125730000Y-107950000D02*
X113030000Y-107950000D01*
X127635000Y-109855000D02*
X125730000Y-107950000D01*
X90805000Y-114935000D02*
X90805000Y-116840000D01*
X85725000Y-116840000D02*
X85725000Y-114935000D01*
X107315000Y-111760000D02*
X112395000Y-106680000D01*
X88900000Y-111760000D02*
X107315000Y-111760000D01*
X85725000Y-114935000D02*
X88900000Y-111760000D01*
X112395000Y-106680000D02*
X112395000Y-106610002D01*
X112395000Y-106610002D02*
X112395000Y-106680000D01*
X128905000Y-109220000D02*
X126365000Y-106680000D01*
X123265000Y-127560000D02*
X128905000Y-121920000D01*
X128905000Y-121920000D02*
X128905000Y-109220000D01*
X123265000Y-127560000D02*
X120650000Y-127560000D01*
X126365000Y-106680000D02*
X112395000Y-106680000D01*
X112395000Y-106680000D02*
X112395000Y-106680000D01*
X120650000Y-127560000D02*
X120725000Y-127560000D01*
X106680000Y-110490000D02*
X87630000Y-110490000D01*
X130175000Y-108585000D02*
X127000000Y-105410000D01*
X122430000Y-130300000D02*
X130175000Y-122555000D01*
X130175000Y-122555000D02*
X130175000Y-108585000D01*
X120650000Y-130300000D02*
X122430000Y-130300000D01*
X127000000Y-105410000D02*
X111760000Y-105410000D01*
X106680000Y-110490000D02*
X111760000Y-105410000D01*
X83185000Y-114935000D02*
X83185000Y-116840000D01*
X87630000Y-110490000D02*
X83185000Y-114935000D01*
X106045000Y-109220000D02*
X86360000Y-109220000D01*
X127635000Y-104140000D02*
X111125000Y-104140000D01*
X120650000Y-133050000D02*
X121585000Y-133050000D01*
X131445000Y-123190000D02*
X131445000Y-107950000D01*
X121585000Y-133050000D02*
X131445000Y-123190000D01*
X131445000Y-107950000D02*
X127635000Y-104140000D01*
X106045000Y-109220000D02*
X111125000Y-104140000D01*
X80645000Y-114935000D02*
X80645000Y-116840000D01*
X86360000Y-109220000D02*
X80645000Y-114935000D01*
X105410000Y-107950000D02*
X85090000Y-107950000D01*
X128270000Y-102870000D02*
X110490000Y-102870000D01*
X132715000Y-107315000D02*
X132715000Y-123825000D01*
X120700000Y-135840000D02*
X132715000Y-123825000D01*
X132715000Y-107315000D02*
X128270000Y-102870000D01*
X105410000Y-107950000D02*
X110490000Y-102870000D01*
X78105000Y-114935000D02*
X78105000Y-116840000D01*
X85090000Y-107950000D02*
X78105000Y-114935000D01*
X120650000Y-135840000D02*
X120700000Y-135840000D01*
M02*
