G04 #@! TF.FileFunction,Copper,L1,Top,Signal*
%FSLAX46Y46*%
G04 Gerber Fmt 4.6, Leading zero omitted, Abs format (unit mm)*
G04 Created by KiCad (PCBNEW 4.0.7) date 03/07/18 18:15:04*
%MOMM*%
%LPD*%
G01*
G04 APERTURE LIST*
%ADD10C,0.100000*%
%ADD11C,3.810000*%
%ADD12R,1.520000X1.520000*%
%ADD13C,1.520000*%
%ADD14R,1.600000X2.400000*%
%ADD15O,1.600000X2.400000*%
%ADD16C,1.600000*%
%ADD17R,2.000000X2.000000*%
%ADD18C,2.000000*%
%ADD19R,1.800000X1.800000*%
%ADD20C,1.800000*%
%ADD21R,1.600000X1.600000*%
%ADD22O,1.600000X1.600000*%
%ADD23O,3.010000X1.510000*%
%ADD24C,1.400000*%
%ADD25O,1.400000X1.400000*%
%ADD26C,2.340000*%
%ADD27R,2.400000X1.600000*%
%ADD28O,2.400000X1.600000*%
%ADD29C,3.000000*%
%ADD30C,1.000000*%
G04 APERTURE END LIST*
D10*
D11*
X120650000Y-95255000D03*
X120650000Y-48265000D03*
D12*
X118110000Y-55245000D03*
D13*
X118110000Y-58035000D03*
X118110000Y-60705000D03*
X118110000Y-63505000D03*
X118110000Y-66295000D03*
X118110000Y-69085000D03*
X118110000Y-71755000D03*
X118110000Y-74545000D03*
X118110000Y-77345000D03*
X118110000Y-80135000D03*
X118110000Y-82805000D03*
X118110000Y-85595000D03*
X118110000Y-88395000D03*
X120650000Y-56815000D03*
X120650000Y-59355000D03*
X120650000Y-62155000D03*
X120650000Y-64895000D03*
X120650000Y-67645000D03*
X120650000Y-70435000D03*
X120650000Y-73175000D03*
X120650000Y-75925000D03*
X120650000Y-78765000D03*
X120650000Y-81455000D03*
X120650000Y-84205000D03*
X120650000Y-86995000D03*
D14*
X60960000Y-133350000D03*
D15*
X45720000Y-140970000D03*
X58420000Y-133350000D03*
X48260000Y-140970000D03*
X55880000Y-133350000D03*
X50800000Y-140970000D03*
X53340000Y-133350000D03*
X53340000Y-140970000D03*
X50800000Y-133350000D03*
X55880000Y-140970000D03*
X48260000Y-133350000D03*
X58420000Y-140970000D03*
X45720000Y-133350000D03*
X60960000Y-140970000D03*
D16*
X39370000Y-60960000D03*
X36870000Y-60960000D03*
X41910000Y-54610000D03*
X41910000Y-52110000D03*
D17*
X49530000Y-55880000D03*
D18*
X49530000Y-50880000D03*
D17*
X59690000Y-66040000D03*
D18*
X59690000Y-71040000D03*
D16*
X72390000Y-67945000D03*
X72390000Y-65445000D03*
X60960000Y-53975000D03*
X60960000Y-51475000D03*
X72390000Y-53975000D03*
X72390000Y-51475000D03*
X71755000Y-90170000D03*
X71755000Y-87670000D03*
X70485000Y-121920000D03*
X70485000Y-119420000D03*
X72390000Y-156210000D03*
X72390000Y-153710000D03*
D19*
X36195000Y-113030000D03*
D20*
X36195000Y-110490000D03*
D21*
X83820000Y-62865000D03*
D22*
X83820000Y-70485000D03*
D21*
X87630000Y-62865000D03*
D22*
X87630000Y-70485000D03*
D21*
X95885000Y-96520000D03*
D22*
X95885000Y-104140000D03*
D21*
X91440000Y-96520000D03*
D22*
X91440000Y-104140000D03*
D21*
X90805000Y-130175000D03*
D22*
X90805000Y-137795000D03*
D21*
X95250000Y-130175000D03*
D22*
X95250000Y-137795000D03*
D21*
X92075000Y-163830000D03*
D22*
X99695000Y-163830000D03*
D21*
X92075000Y-167640000D03*
D22*
X99695000Y-167640000D03*
D23*
X35560000Y-54610000D03*
X35560000Y-52070000D03*
X36195000Y-121285000D03*
X36195000Y-118745000D03*
D11*
X120650000Y-160660000D03*
X120650000Y-113670000D03*
D12*
X118110000Y-120650000D03*
D13*
X118110000Y-123440000D03*
X118110000Y-126110000D03*
X118110000Y-128910000D03*
X118110000Y-131700000D03*
X118110000Y-134490000D03*
X118110000Y-137160000D03*
X118110000Y-139950000D03*
X118110000Y-142750000D03*
X118110000Y-145540000D03*
X118110000Y-148210000D03*
X118110000Y-151000000D03*
X118110000Y-153800000D03*
X120650000Y-122220000D03*
X120650000Y-124760000D03*
X120650000Y-127560000D03*
X120650000Y-130300000D03*
X120650000Y-133050000D03*
X120650000Y-135840000D03*
X120650000Y-138580000D03*
X120650000Y-141330000D03*
X120650000Y-144170000D03*
X120650000Y-146860000D03*
X120650000Y-149610000D03*
X120650000Y-152400000D03*
D24*
X43180000Y-76200000D03*
D25*
X50800000Y-76200000D03*
D24*
X55880000Y-118110000D03*
D25*
X55880000Y-110490000D03*
D24*
X50800000Y-78740000D03*
D25*
X43180000Y-78740000D03*
D24*
X76200000Y-62865000D03*
D25*
X76200000Y-70485000D03*
D24*
X80010000Y-70485000D03*
D25*
X80010000Y-62865000D03*
D24*
X86995000Y-96520000D03*
D25*
X86995000Y-104140000D03*
D24*
X86360000Y-130175000D03*
D25*
X86360000Y-137795000D03*
D24*
X92075000Y-171450000D03*
D25*
X99695000Y-171450000D03*
D24*
X104140000Y-104140000D03*
D25*
X104140000Y-96520000D03*
D24*
X110490000Y-170180000D03*
D25*
X110490000Y-162560000D03*
D26*
X34290000Y-92550000D03*
X34290000Y-87550000D03*
X34290000Y-82550000D03*
D27*
X50800000Y-72390000D03*
D28*
X43180000Y-64770000D03*
X50800000Y-69850000D03*
X43180000Y-67310000D03*
X50800000Y-67310000D03*
X43180000Y-69850000D03*
X50800000Y-64770000D03*
X43180000Y-72390000D03*
D14*
X95250000Y-48895000D03*
D15*
X77470000Y-56515000D03*
X92710000Y-48895000D03*
X80010000Y-56515000D03*
X90170000Y-48895000D03*
X82550000Y-56515000D03*
X87630000Y-48895000D03*
X85090000Y-56515000D03*
X85090000Y-48895000D03*
X87630000Y-56515000D03*
X82550000Y-48895000D03*
X90170000Y-56515000D03*
X80010000Y-48895000D03*
X92710000Y-56515000D03*
X77470000Y-48895000D03*
X95250000Y-56515000D03*
D14*
X93980000Y-83185000D03*
D15*
X76200000Y-90805000D03*
X91440000Y-83185000D03*
X78740000Y-90805000D03*
X88900000Y-83185000D03*
X81280000Y-90805000D03*
X86360000Y-83185000D03*
X83820000Y-90805000D03*
X83820000Y-83185000D03*
X86360000Y-90805000D03*
X81280000Y-83185000D03*
X88900000Y-90805000D03*
X78740000Y-83185000D03*
X91440000Y-90805000D03*
X76200000Y-83185000D03*
X93980000Y-90805000D03*
D14*
X93345000Y-116840000D03*
D15*
X75565000Y-124460000D03*
X90805000Y-116840000D03*
X78105000Y-124460000D03*
X88265000Y-116840000D03*
X80645000Y-124460000D03*
X85725000Y-116840000D03*
X83185000Y-124460000D03*
X83185000Y-116840000D03*
X85725000Y-124460000D03*
X80645000Y-116840000D03*
X88265000Y-124460000D03*
X78105000Y-116840000D03*
X90805000Y-124460000D03*
X75565000Y-116840000D03*
X93345000Y-124460000D03*
D14*
X94615000Y-151130000D03*
D15*
X76835000Y-158750000D03*
X92075000Y-151130000D03*
X79375000Y-158750000D03*
X89535000Y-151130000D03*
X81915000Y-158750000D03*
X86995000Y-151130000D03*
X84455000Y-158750000D03*
X84455000Y-151130000D03*
X86995000Y-158750000D03*
X81915000Y-151130000D03*
X89535000Y-158750000D03*
X79375000Y-151130000D03*
X92075000Y-158750000D03*
X76835000Y-151130000D03*
X94615000Y-158750000D03*
D29*
X35000000Y-40000000D03*
X35000000Y-170000000D03*
X130000000Y-170000000D03*
X110000000Y-50000000D03*
D18*
X39370000Y-64770000D03*
X44450000Y-87630000D03*
X64135000Y-127000000D03*
X76200000Y-77470000D03*
X59690000Y-77470000D03*
X45720000Y-129540000D03*
X72390000Y-151130000D03*
X97790000Y-158750000D03*
X72390000Y-158750000D03*
X72390000Y-56515000D03*
X97790000Y-56515000D03*
X97155000Y-90805000D03*
X71755000Y-93345000D03*
X70485000Y-127000000D03*
X97790000Y-124460000D03*
X46990000Y-60960000D03*
X46990000Y-82550000D03*
X108585000Y-96520000D03*
X108585000Y-124460000D03*
X98425000Y-134620000D03*
X106680000Y-163830000D03*
X108585000Y-60325000D03*
X98425000Y-131445000D03*
X90170000Y-70485000D03*
X99695000Y-48895000D03*
X99695000Y-96520000D03*
X101600000Y-82550000D03*
X98425000Y-137795000D03*
X104140000Y-117475000D03*
X103505000Y-167640000D03*
X59690000Y-60325000D03*
X90170000Y-60325000D03*
X45720000Y-144780000D03*
X71755000Y-98425000D03*
X89535000Y-163830000D03*
X53340000Y-144780000D03*
D30*
X39370000Y-86360000D02*
X39370000Y-64770000D01*
X40640000Y-87630000D02*
X39370000Y-86360000D01*
X44450000Y-87630000D02*
X40640000Y-87630000D01*
X59690000Y-77470000D02*
X76200000Y-77470000D01*
X64135000Y-127000000D02*
X48260000Y-127000000D01*
X48260000Y-127000000D02*
X45720000Y-129540000D01*
X72390000Y-151130000D02*
X72390000Y-135255000D01*
X72390000Y-135255000D02*
X64135000Y-127000000D01*
X97790000Y-158750000D02*
X97790000Y-156210000D01*
X97155000Y-155575000D02*
X74295000Y-155575000D01*
X97790000Y-156210000D02*
X97155000Y-155575000D01*
X72390000Y-158750000D02*
X73660000Y-158750000D01*
X74295000Y-127000000D02*
X74295000Y-155575000D01*
X74295000Y-155575000D02*
X74295000Y-158115000D01*
X73660000Y-158750000D02*
X74295000Y-158115000D01*
X76835000Y-52705000D02*
X97155000Y-52705000D01*
X74295000Y-56515000D02*
X72390000Y-56515000D01*
X75565000Y-53975000D02*
X76835000Y-52705000D01*
X75565000Y-55245000D02*
X75565000Y-53975000D01*
X74295000Y-56515000D02*
X75565000Y-55245000D01*
X97155000Y-52705000D02*
X98425000Y-53975000D01*
X98425000Y-53975000D02*
X98425000Y-55880000D01*
X98425000Y-55880000D02*
X97790000Y-56515000D01*
X82550000Y-93345000D02*
X82550000Y-104775000D01*
X97790000Y-113665000D02*
X97790000Y-124460000D01*
X95885000Y-111760000D02*
X97790000Y-113665000D01*
X89535000Y-111760000D02*
X95885000Y-111760000D01*
X82550000Y-104775000D02*
X89535000Y-111760000D01*
X71755000Y-93345000D02*
X66040000Y-93345000D01*
X55245000Y-82550000D02*
X46990000Y-82550000D01*
X66040000Y-93345000D02*
X55245000Y-82550000D01*
X97155000Y-90805000D02*
X97155000Y-92710000D01*
X96520000Y-93345000D02*
X82550000Y-93345000D01*
X82550000Y-93345000D02*
X71755000Y-93345000D01*
X97155000Y-92710000D02*
X96520000Y-93345000D01*
X74295000Y-127000000D02*
X70485000Y-127000000D01*
X96520000Y-127000000D02*
X74295000Y-127000000D01*
X96520000Y-127000000D02*
X97790000Y-125730000D01*
X97790000Y-125730000D02*
X97790000Y-124460000D01*
X46990000Y-60960000D02*
X46990000Y-82550000D01*
X108585000Y-124460000D02*
X108585000Y-153670000D01*
X106680000Y-155575000D02*
X106680000Y-163830000D01*
X108585000Y-153670000D02*
X106680000Y-155575000D01*
X108585000Y-124460000D02*
X108585000Y-96520000D01*
X108585000Y-96520000D02*
X108585000Y-60325000D01*
X98425000Y-94615000D02*
X99060000Y-93980000D01*
X94615000Y-94615000D02*
X98425000Y-94615000D01*
X100330000Y-129540000D02*
X98425000Y-131445000D01*
X93980000Y-95250000D02*
X93980000Y-105410000D01*
X93980000Y-105410000D02*
X100330000Y-111760000D01*
X100330000Y-111760000D02*
X100330000Y-129540000D01*
X93980000Y-95250000D02*
X94615000Y-94615000D01*
X96520000Y-70485000D02*
X90170000Y-70485000D01*
X98425000Y-72390000D02*
X96520000Y-70485000D01*
X98425000Y-84455000D02*
X98425000Y-72390000D01*
X99060000Y-85090000D02*
X98425000Y-84455000D01*
X99060000Y-93980000D02*
X99060000Y-85090000D01*
X99695000Y-83820000D02*
X100330000Y-84455000D01*
X99695000Y-48895000D02*
X99695000Y-83820000D01*
X100330000Y-95885000D02*
X99695000Y-96520000D01*
X100330000Y-84455000D02*
X100330000Y-95885000D01*
X101600000Y-130175000D02*
X101600000Y-134620000D01*
X101600000Y-82550000D02*
X101600000Y-130175000D01*
X101600000Y-134620000D02*
X98425000Y-137795000D01*
X104140000Y-117475000D02*
X104140000Y-124460000D01*
X104140000Y-124460000D02*
X103505000Y-125095000D01*
X103505000Y-125095000D02*
X103505000Y-167640000D01*
X59690000Y-60325000D02*
X90170000Y-60325000D01*
X41910000Y-125095000D02*
X41910000Y-143510000D01*
X45720000Y-144780000D02*
X43180000Y-144780000D01*
X43180000Y-144780000D02*
X41910000Y-143510000D01*
X71755000Y-98425000D02*
X71755000Y-113030000D01*
X43180000Y-123825000D02*
X41910000Y-125095000D01*
X60960000Y-123825000D02*
X43180000Y-123825000D01*
X71755000Y-113030000D02*
X60960000Y-123825000D01*
X53340000Y-144780000D02*
X53340000Y-147955000D01*
X69215000Y-163830000D02*
X89535000Y-163830000D01*
X53340000Y-147955000D02*
X69215000Y-163830000D01*
M02*
